<?xml version="1.0" encoding="UTF-8"?>
<svg version="1.1" xmlns="http://www.w3.org/2000/svg" width="1000" height="1000">
<path d="M0 0 C1.33769828 -0.00300419 2.6753957 -0.00640953 4.01309204 -0.01017761 C7.60068387 -0.01889964 11.18825175 -0.02135084 14.77585316 -0.0219934 C17.03434551 -0.02271134 19.29283205 -0.0248596 21.55132294 -0.02749062 C29.47985714 -0.03670925 37.40837468 -0.04083041 45.33691406 -0.04003906 C52.64565596 -0.03944113 59.95432339 -0.04994598 67.2630465 -0.06578273 C73.6017262 -0.07901182 79.94038205 -0.08421654 86.27907538 -0.08358365 C90.03619757 -0.08333287 93.79325361 -0.08594377 97.55036163 -0.0967617 C111.93814412 -0.13518849 126.27933461 -0.01450113 140.63867188 1.02294922 C141.69600651 1.09895513 142.75334114 1.17496103 143.84271622 1.25327015 C184.42622657 4.56051245 221.90513431 22.39327043 248.87402344 53.14526367 C268.15526537 77.09542976 279.88971904 105.70006063 283.87402344 136.14526367 C283.96828613 136.85303955 284.06254883 137.56081543 284.15966797 138.29003906 C285.09344501 146.28059801 285.11649958 154.29827887 285.12402344 162.33276367 C285.12503052 163.08137665 285.1260376 163.82998962 285.1270752 164.60128784 C285.09656252 198.29850324 278.34162333 232.66430107 258.90527344 260.83666992 C257.42817433 264.14335769 257.52187008 266.55100276 257.87402344 270.14526367 C258.85420245 272.68796336 259.8451226 274.89261913 261.12402344 277.27026367 C261.65757446 278.2983313 261.65757446 278.2983313 262.2019043 279.34716797 C265.61459984 285.83931342 269.26034493 292.20530512 272.93945312 298.54931641 C275.98262959 303.79979373 278.94712576 309.08388074 281.83886719 314.41870117 C282.51572254 315.66121269 283.19272408 316.90364457 283.86987305 318.14599609 C284.86880848 319.97913554 285.86391791 321.81383701 286.84719849 323.65542603 C287.76287848 325.3696187 288.69317164 327.07598087 289.62402344 328.78198242 C290.15511719 329.76900146 290.68621094 330.75602051 291.23339844 331.77294922 C292.99176249 334.31551224 294.12716222 334.91225539 296.87402344 336.14526367 C300.22839867 328.30769621 303.2849311 320.4244601 306.06933594 312.36791992 C306.64701973 310.71204613 306.64701973 310.71204613 307.2363739 309.02272034 C308.06306236 306.65263802 308.88825375 304.28203307 309.71206665 301.91094971 C311.93083916 295.52648719 314.16181537 289.14629675 316.39355469 282.76635742 C316.62157209 282.11420258 316.8495895 281.46204773 317.08451653 280.79013062 C321.87612222 267.0895736 326.7702304 253.42654912 331.68652344 239.77026367 C337.67937919 223.11402774 343.5993836 206.43564553 349.40866089 189.71450806 C356.05657761 170.57961122 362.81758659 151.48560834 369.59437561 132.39602661 C372.22150297 124.99274492 374.83662352 117.58527846 377.44824219 110.17651367 C378.58038089 106.96813815 379.7127719 103.75985182 380.84527588 100.55160522 C381.55707566 98.53355191 382.26801335 96.51519425 382.97796631 94.49649048 C386.59381293 84.21650756 390.26824017 73.96205582 394.11621094 63.76635742 C394.43312393 62.9197908 394.75003693 62.07322418 395.07655334 61.20100403 C399.37011775 49.93021251 404.77339652 39.1831532 412.87402344 30.14526367 C413.60105469 29.32541992 414.32808594 28.50557617 415.07714844 27.66088867 C431.67218322 9.99520648 455.9274859 2.06177597 479.71411133 1.02099609 C509.96543807 0.24098663 538.58454505 4.08481127 561.87402344 25.14526367 C571.82174493 34.654611 578.49224274 46.09414338 583.49121094 58.79760742 C583.82873886 59.64942093 584.16626678 60.50123444 584.51402283 61.37886047 C589.21475588 73.39405481 593.43852469 85.58663926 597.70864105 97.75963211 C598.95534752 101.31046198 600.20711096 104.85950828 601.45849609 108.40869141 C603.28728865 113.59663698 605.11477475 118.78503885 606.94052124 123.9740572 C610.24864008 133.37566091 613.5678298 142.77331206 616.89355469 152.16870117 C617.25939384 153.20223063 617.25939384 153.20223063 617.63262367 154.25663948 C618.85304706 157.70424433 620.07367301 161.15177741 621.29440308 164.59927368 C622.75257864 168.71751271 624.21000298 172.83601733 625.66723633 176.95458984 C625.90519519 177.62712642 626.14315405 178.29966299 626.38832378 178.99257946 C626.86425281 180.3376846 627.34018176 181.68278977 627.81611061 183.02789497 C632.99989628 197.67821942 638.18757801 212.32716295 643.37664795 226.97561646 C650.20986044 246.2656763 657.036198 265.55816672 663.86196899 284.8508606 C669.18085532 299.88437817 674.49975773 314.91788831 679.82594299 329.94882202 C681.59327705 334.93649286 683.35946886 339.92455916 685.12231445 344.91381836 C687.93660601 352.8760726 690.75493049 360.83629813 693.62858582 368.77735901 C694.7657893 371.92169168 695.89598058 375.06852239 697.02554321 378.21560669 C697.53672853 379.63321061 698.05149252 381.04953092 698.57040405 382.46432495 C702.78092408 393.9443049 705.27114824 404.87711967 705.18652344 417.14526367 C705.18160889 418.00466553 705.17669434 418.86406738 705.17163086 419.74951172 C705.00999324 428.56000544 704.17691766 437.70396243 698.35839844 444.75463867 C684.73676302 457.51596027 657.41864046 454.29519964 640.10424805 454.2746582 C638.16058825 454.27601656 636.21692871 454.27779892 634.27326965 454.27996826 C629.03263481 454.28449551 623.79201984 454.28277131 618.55138469 454.27958918 C613.02412921 454.27703567 607.4968753 454.27941187 601.96961975 454.28097534 C592.67530008 454.28279065 583.38098838 454.28040989 574.08666992 454.27563477 C563.4209122 454.27021746 552.75517368 454.27193889 542.08941644 454.27746117 C532.87003605 454.28203949 523.65066136 454.28261933 514.4312802 454.2800225 C508.95319116 454.27848231 503.47511105 454.27820209 497.99702263 454.28155899 C491.85957751 454.28485127 485.72215758 454.28272991 479.5847168 454.2746582 C478.13857886 454.27285313 478.13857886 454.27285313 476.66322601 454.27101159 C463.7374577 454.24712854 450.83457391 454.06641801 437.92381954 453.40634346 C431.39487571 453.10860781 424.98129198 453.24047692 418.46305847 453.61035156 C407.34132707 454.2412366 396.24836852 454.28637635 385.11132812 454.2746582 C382.90776541 454.27601721 380.70420293 454.27779993 378.50064087 454.27996826 C372.5794464 454.28448215 366.65826958 454.28277848 360.73707485 454.27958918 C354.50662124 454.27703533 348.27616901 454.27941135 342.04571533 454.28097534 C330.92560602 454.28290338 319.80550442 454.27982149 308.68539634 454.274716 C298.63694 454.27024518 288.5884952 454.27102976 278.54003906 454.27563477 C266.815851 454.28100536 255.09166966 454.28296851 243.36748052 454.2800225 C237.18121008 454.27847133 230.99494758 454.27823407 224.80867767 454.28155899 C218.99397878 454.28446675 213.17930153 454.28240909 207.36460495 454.27666473 C205.24273337 454.27535287 203.12085993 454.27570417 200.99898911 454.2779274 C168.70193795 454.30862448 168.70193795 454.30862448 157.24902344 451.33276367 C155.97800781 451.01694336 154.70699219 450.70112305 153.39746094 450.37573242 C142.03068173 446.40618092 135.83153252 436.73753729 130.41699219 426.55151367 C129.04149113 423.85225042 129.04149113 423.85225042 125.87402344 423.14526367 C125.78765625 423.75112305 125.70128906 424.35698242 125.61230469 424.98120117 C124.26394392 433.02188462 121.79160657 439.87187771 116.31152344 446.02026367 C108.93240968 451.24098666 100.08229282 452.43501147 91.30761719 453.24194336 C90.39072113 453.32701015 89.47382507 453.41207695 88.52914429 453.49972153 C78.35278696 454.37325002 68.2060649 454.43550624 57.99902344 454.41088867 C55.97184198 454.41224236 53.94466084 454.41418868 51.91748047 454.41668701 C47.70569717 454.41960526 43.49399973 454.41544864 39.28222656 454.40600586 C33.94773518 454.39461346 28.61344522 454.40119089 23.27896118 454.41315079 C19.10390775 454.42045963 14.92890021 454.41804062 10.75384521 454.4128952 C8.78953018 454.41158349 6.82521064 454.41311674 4.86090088 454.41785431 C-5.32581779 454.43704567 -15.41174031 454.18342781 -25.55957031 453.24194336 C-26.41878082 453.16292912 -27.27799133 453.08391487 -28.16323853 453.00250626 C-37.44551737 452.05154958 -46.63789409 450.28215439 -53.12597656 443.14526367 C-62.93563414 428.98699501 -61.27971055 408.22389046 -61.25968933 391.81576538 C-61.26156306 390.33285738 -61.26386598 388.84994988 -61.26655465 387.36704314 C-61.27260962 383.33690396 -61.2725466 379.30678571 -61.27136028 375.27664304 C-61.27115466 370.91245286 -61.27669027 366.54826913 -61.28141785 362.18408203 C-61.28969018 353.65059591 -61.29247113 345.11711671 -61.29303022 336.58362691 C-61.293507 329.64051413 -61.29556976 322.6974036 -61.29873085 315.75429153 C-61.30752797 296.02778131 -61.31215168 276.3012765 -61.31140038 256.5747643 C-61.31136042 255.51344413 -61.31132046 254.45212396 -61.3112793 253.35864258 C-61.31121798 251.76469716 -61.31121798 251.76469716 -61.31115542 250.13855083 C-61.31074918 232.92685544 -61.32031562 215.71518194 -61.33441766 198.50349288 C-61.34881526 180.78997066 -61.355686 163.0764591 -61.35482389 145.36293089 C-61.35449309 135.43449389 -61.3571884 125.50607986 -61.36800194 115.57764816 C-61.37715158 107.12341186 -61.37924579 98.66920893 -61.37249251 90.2149698 C-61.36924974 85.91057422 -61.36908844 81.6062425 -61.37784576 77.30185318 C-61.48221646 22.43899983 -61.48221646 22.43899983 -52.87597656 10.64526367 C-39.27327136 -1.72083197 -17.13921866 -0.00640463 0 0 Z " fill="#000000" transform="translate(189.1259765625,268.854736328125)"/>
<path d="M0 0 C177.7473904 0 177.7473904 0 196.02734375 16.87109375 C208.91903018 30.43980529 210.68701142 47.46356915 210.27734375 65.26953125 C209.63888912 81.62297699 203.45461504 95.83063992 191.89453125 107.37109375 C182.85405256 115.58194687 171.0357106 122.16686506 158.578125 122.09765625 C157.55332031 122.09443359 156.52851563 122.09121094 155.47265625 122.08789062 C154.40917969 122.07951172 153.34570312 122.07113281 152.25 122.0625 C151.17105469 122.05798828 150.09210938 122.05347656 148.98046875 122.04882812 C146.32025617 122.03705727 143.66015635 122.02061399 141 122 C147.86450419 134.36052202 154.77139642 146.68627135 161.9375 158.875 C167.57905241 168.47561994 173.01212674 178.1795236 178.39208984 187.92871094 C182.51855524 195.38648756 186.74463655 202.77652631 191.0625 210.125 C196.36002309 219.14073416 201.51796508 228.22474679 206.60742188 237.359375 C211.04175881 245.31059984 215.53735328 253.22527289 220.0625 261.125 C225.53867135 270.68523463 230.98227423 280.26295989 236.38964844 289.86230469 C240.44773528 297.0542075 244.57391469 304.20504517 248.7512207 311.32836914 C252 316.89395592 252 316.89395592 252 318 C244.70750516 318.30232466 237.41637573 318.53272053 230.11886597 318.67355824 C226.72916191 318.74119269 223.34376582 318.83271996 219.95654297 318.98071289 C198.22748478 319.86183617 198.22748478 319.86183617 193.08721924 316.89657593 C189.7019436 313.59872858 188.46409268 309.37636398 187 305 C185.78332372 302.7902484 184.51953535 300.60580748 183.2109375 298.44921875 C181.93040618 296.19638318 180.65181782 293.94244231 179.375 291.6875 C177.96780165 289.21129555 176.55845344 286.7363197 175.1484375 284.26171875 C174.79755066 283.64569794 174.44666382 283.02967712 174.08514404 282.39498901 C170.76448069 276.5725947 167.38824527 270.78330019 164 265 C158.99222539 256.44469503 154.03858248 247.85967964 149.125 239.25 C148.79511078 238.67205688 148.46522156 238.09411377 148.12533569 237.49865723 C145.01833637 232.05431794 141.91514657 226.60781115 138.81396484 221.16015625 C136.9967567 217.96799422 135.17806026 214.77668375 133.35858154 211.58581543 C132.34273623 209.80306291 131.3287998 208.01923456 130.31494141 206.23535156 C129.69151855 205.1419043 129.0680957 204.04845703 128.42578125 202.921875 C127.88348877 201.96893555 127.34119629 201.01599609 126.7824707 200.03417969 C124.59562508 196.31165984 122.28818704 192.66109927 120 189 C119.67 231.57 119.34 274.14 119 318 C101.51 318 84.02 318 66 318 C66 235.5 66 153 66 68 C109.065 67.505 109.065 67.505 153 67 C156.4115446 63.33995629 156.4115446 63.33995629 155.8125 59.3125 C155.4103125 57.6728125 155.4103125 57.6728125 155 56 C124.28554448 40.64277224 86.33812218 54.33998141 52 54 C52 141.12 52 228.24 52 318 C34.84 318 17.68 318 0 318 C0 213.06 0 108.12 0 0 Z " fill="#1A6BDD" transform="translate(163,370)"/>
<path d="M0 0 C16.67133348 12.56187313 23.3823128 31.39189951 29.84967041 50.47067261 C31.45701027 55.2093886 33.09364117 59.93802008 34.7265625 64.66796875 C35.0714975 65.66911209 35.4164325 66.67025543 35.77182007 67.70173645 C39.40322433 78.21816749 43.16814851 88.68562335 46.9407959 99.15203857 C54.23768814 119.39657071 61.41349426 139.68096652 68.5 160 C75.07957535 178.86502765 81.73080647 197.70203455 88.5 216.5 C95.26919439 235.29796786 101.92021976 254.1350424 108.5 273 C116.55124517 296.08240047 124.72697652 319.11595005 133.00354004 342.11846924 C133.71676491 344.10070093 134.42959033 346.0830764 135.14196777 348.06561279 C136.62933449 352.20309285 138.12123741 356.338547 139.63671875 360.46582031 C139.87636353 361.12305084 140.1160083 361.78028137 140.36291504 362.45742798 C140.97364844 364.13120004 141.58911784 365.80324206 142.20507812 367.47509766 C143 370 143 370 143 373 C67.76 373 -7.48 373 -85 373 C-85 357.82 -85 342.64 -85 327 C-31.54 327 21.92 327 77 327 C74.69 321.06 72.38 315.12 70 309 C68.89132146 305.92033738 67.79928424 302.84844045 66.75 299.75 C63.77941749 291.12482632 60.65495023 282.5590318 57.5 274 C54.15615889 264.92466147 50.86372545 255.83626479 47.703125 246.6953125 C45.06207066 239.09605236 42.28096251 231.54885936 39.5 224 C36.15662532 214.92448563 32.86372855 205.83627376 29.703125 196.6953125 C26.64283822 187.88977036 23.40551953 179.14854028 20.16992188 170.40625 C17.60008931 163.44234436 15.09827392 156.45901508 12.65625 149.44921875 C8.14246825 136.49456904 3.46581676 123.59961435 -1.21777344 110.70556641 C-1.77709564 109.16554962 -1.77709564 109.16554962 -2.34771729 107.59442139 C-3.10545584 105.50812785 -3.8633904 103.4219055 -4.621521 101.33575439 C-6.84471888 95.21044649 -9.04520167 89.07762448 -11.22399902 82.93638611 C-12.57084154 79.14463298 -13.92837705 75.35675852 -15.28759766 71.56942749 C-15.92446202 69.78640518 -16.55637842 68.00160708 -17.18310547 66.21499634 C-18.05192796 63.74008622 -18.9379837 61.27199525 -19.828125 58.8046875 C-20.07645081 58.0828981 -20.32477661 57.3611087 -20.58062744 56.6174469 C-22.74439506 50.71231595 -25.71804317 47.32353496 -31.125 44.1875 C-36.61540186 42.10617119 -42.79797596 41.97472137 -48.37890625 43.76171875 C-53.03589932 45.93155162 -55.84095489 48.33605272 -57.93644714 53.15232849 C-58.2012941 53.93149124 -58.46614105 54.71065399 -58.73901367 55.51342773 C-59.04811172 56.41062531 -59.35720978 57.30782288 -59.67567444 58.23220825 C-60.16686012 59.69314407 -60.16686012 59.69314407 -60.66796875 61.18359375 C-61.19595314 62.72380692 -61.19595314 62.72380692 -61.73460388 64.2951355 C-62.49463418 66.51427494 -63.25145828 68.73451451 -64.00543213 70.95571899 C-66.01113275 76.86351034 -68.04022817 82.76326977 -70.06640625 88.6640625 C-70.47820129 89.86535294 -70.88999634 91.06664337 -71.31427002 92.30433655 C-75.33075287 104.00496454 -79.46291861 115.66301567 -83.625 127.3125 C-84.93915149 130.99466704 -86.25283217 134.67700194 -87.56640625 138.359375 C-87.8703833 139.21121368 -88.17436035 140.06305237 -88.48754883 140.94070435 C-91.76948067 150.14468325 -94.98156088 159.37228858 -98.171875 168.60839844 C-99.62502824 172.80506386 -101.09398535 176.99619023 -102.5625 181.1875 C-102.84810791 182.0029126 -103.13371582 182.8183252 -103.42797852 183.65844727 C-103.99895421 185.28843571 -104.56999902 186.91839994 -105.14111328 188.54833984 C-106.30246009 191.86336107 -107.46278563 195.17873933 -108.62304688 198.49414062 C-109.49728011 200.99222802 -110.37168665 203.49025471 -111.24609375 205.98828125 C-112.42639074 209.36046421 -113.60600742 212.73288415 -114.78515625 216.10546875 C-117.7553887 224.59929138 -120.73447667 233.08982174 -123.73291016 241.57373047 C-126.84194275 250.37547356 -129.91942109 259.18826773 -133 268 C-136.56372615 278.19373357 -140.13171105 288.38579936 -143.73071289 298.56713867 C-145.66451741 304.04102729 -147.58403693 309.51984362 -149.5 315 C-151.89674976 321.85533229 -154.30488572 328.70648585 -156.72607422 335.55322266 C-158.08734197 339.40547472 -159.4418544 343.25999384 -160.7890625 347.1171875 C-161.09457031 347.99181641 -161.40007813 348.86644531 -161.71484375 349.76757812 C-162.29881179 351.44053379 -162.8821968 353.11369315 -163.46484375 354.78710938 C-165.59118307 360.87892036 -167.79442187 366.93466013 -170 373 C-187.49 373 -204.98 373 -223 373 C-221.87506606 366.25039639 -221.87506606 366.25039639 -220.6875 362.94970703 C-220.4213942 362.20212128 -220.15528839 361.45453552 -219.88111877 360.68429565 C-219.59034958 359.88355621 -219.29958038 359.08281677 -219 358.2578125 C-218.69307724 357.39962921 -218.38615448 356.54144592 -218.06993103 355.65725708 C-217.40276475 353.79369416 -216.7332766 351.9309612 -216.06173706 350.06896973 C-214.97618672 347.05897088 -213.89662263 344.04688347 -212.81860352 341.03417969 C-211.30021709 336.79137525 -209.77984633 332.54928965 -208.25830078 328.30761719 C-205.13417284 319.5904294 -202.04421608 310.86119522 -198.95654297 302.13104248 C-197.92210278 299.2064689 -196.8869354 296.28215365 -195.8515625 293.35791016 C-188.98302479 273.95815342 -182.11956071 254.55659931 -175.25518703 235.1553688 C-169.00633578 217.49388268 -162.75462219 199.83341395 -156.49902344 182.17431641 C-150.91015129 166.39700082 -145.32566862 150.61813452 -139.74283028 134.83868313 C-138.00843795 129.93668029 -136.27359705 125.03483635 -134.53857422 120.13305664 C-133.56474765 117.38168415 -132.59095548 114.63029948 -131.6171875 111.87890625 C-131.37813564 111.20347338 -131.13908379 110.5280405 -130.89278793 109.83213997 C-127.61336993 100.56572605 -124.3397521 91.29728404 -121.0703125 82.02734375 C-117.33836992 71.44811762 -113.59264617 60.87389759 -109.82299805 50.30804443 C-109.05560289 48.15593469 -108.29036285 46.00306949 -107.52539062 43.85009766 C-100.29587786 23.58984198 -93.0416529 6.28164942 -73.0625 -4.56640625 C-49.68796525 -15.50831218 -21.63327399 -14.06996997 0 0 Z " fill="#CFA015" transform="translate(719,315)"/>
<path d="M0 0 C21.55907004 -0.0906019 43.11798383 -0.16415655 64.6771965 -0.20724869 C74.68948984 -0.22779675 84.70165571 -0.25576739 94.71386719 -0.30175781 C103.44947696 -0.34186482 112.18499434 -0.36748903 120.92069364 -0.37635398 C125.53807354 -0.3815287 130.15518932 -0.39352547 134.77248383 -0.42292023 C176.39744496 -0.67741825 210.16098976 6.0520045 241 36 C265.6375454 60.56138606 277.16896648 93.63185667 277.375 127.9375 C277.31256337 139.53420714 276.64952984 150.6977733 274 162 C273.83371094 162.71897461 273.66742188 163.43794922 273.49609375 164.17871094 C267.83973291 187.65260841 254.81851675 208.79618368 236 224 C241.0032151 234.49765495 246.65747303 244.57451726 252.41015625 254.67578125 C256.13285675 261.21632371 259.78971732 267.7924533 263.4375 274.375 C268.27226564 283.09431389 273.12294692 291.80426535 278 300.5 C282.87705398 309.19573625 287.72741501 317.90586225 292.5625 326.625 C297.25393024 335.08421246 301.97883639 343.52300618 306.75 351.9375 C310.97639212 359.39538063 315.17052329 366.86986248 319.3125 374.375 C319.78719727 375.232146 320.26189453 376.08929199 320.75097656 376.97241211 C321.17991211 377.75237549 321.60884766 378.53233887 322.05078125 379.3359375 C322.61792847 380.36533447 322.61792847 380.36533447 323.1965332 381.41552734 C324 383 324 383 324 384 C316.45729802 384.33053805 308.91646844 384.55761739 301.36816406 384.71411133 C298.80300127 384.77935752 296.23831966 384.86798237 293.67480469 384.98071289 C273.11495745 385.86196313 273.11495745 385.86196313 268.15066528 382.89456177 C264.81580741 379.574361 263.51520812 375.34822658 262 371 C260.79210729 368.81527413 259.54025082 366.65428871 258.24609375 364.51953125 C256.97454154 362.28500298 255.70507618 360.04928614 254.4375 357.8125 C253.03234523 355.34182403 251.62548727 352.87211894 250.21875 350.40234375 C249.86582382 349.78224426 249.51289764 349.16214478 249.14927673 348.52325439 C245.60215926 342.29361883 242.02314844 336.08252979 238.4375 329.875 C237.82245605 328.80983154 237.20741211 327.74466309 236.57373047 326.6472168 C234.71631754 323.4311903 232.85827429 320.21552886 231 317 C222.93910696 303.05155632 214.90290574 289.08996112 206.92263794 275.09527588 C201.77331192 266.06839202 196.56164936 257.0796861 191.30859375 248.11279297 C188.09163826 242.61257026 184.90290119 237.09739511 181.74609375 231.5625 C181.3866568 230.93230957 181.02721985 230.30211914 180.65689087 229.65283203 C178.90692797 226.58275277 177.1598397 223.51106998 175.41601562 220.4375 C172.7120656 215.68426944 170.01164616 210.96353762 167.03515625 206.375 C165 203 165 203 165 200 C165.99257813 199.8040625 166.98515625 199.608125 168.0078125 199.40625 C184.98744129 195.77932892 199.48116642 187.71962004 209.23828125 172.890625 C215.35748238 162.85025064 220.12138242 153.78994483 222 142 C222.3403125 140.0509375 222.3403125 140.0509375 222.6875 138.0625 C224.84005193 116.67151515 220.74570249 95.51342644 207.81640625 78.05078125 C199.18158401 67.88466048 187.92672205 60.48931099 175 57 C173.79275772 56.66102692 172.58551544 56.32205383 171.34169006 55.97280884 C164.23523023 54.41858227 156.97640047 54.69060786 149.73999023 54.68115234 C148.10321056 54.67184181 146.46643559 54.66167148 144.82966614 54.65071106 C140.40886241 54.62352376 135.98809034 54.60829524 131.56722522 54.59528303 C126.93874675 54.57960294 122.31033248 54.55282837 117.68190002 54.5272522 C108.92739688 54.48055054 100.17288154 54.44376484 91.41831785 54.41057932 C81.44727963 54.37229694 71.47630601 54.32290287 61.50532234 54.27259517 C41.00359009 54.16940344 20.50183047 54.08156831 0 54 C0 36.18 0 18.36 0 0 Z " fill="#4083E2" transform="translate(163,304)"/>
<path d="M0 0 C3.26887185 1.46477934 4.71674882 2.49155591 6.47338867 5.64477539 C7.09564331 7.32301392 7.09564331 7.32301392 7.73046875 9.03515625 C7.97347214 9.68017593 8.21647552 10.32519562 8.46684265 10.98976135 C9.33371053 13.31888845 10.16849847 15.65801704 11 18 C11.49696381 19.38575226 11.49696381 19.38575226 12.00396729 20.79949951 C14.37942844 27.43605817 16.71017325 34.0877447 19.02719116 40.74490356 C20.34226066 44.52300015 21.6611824 48.29972937 22.98168945 52.07592773 C23.20488074 52.714194 23.42807203 53.35246027 23.6580267 54.01006794 C24.11041896 55.30373286 24.56283032 56.59739111 25.0152607 57.89104271 C25.69600897 59.83792936 26.37635449 61.78495638 27.05662537 63.73200989 C31.23449947 75.68700629 35.45357791 87.62724867 39.6875 99.5625 C40.03048126 100.52956879 40.37346252 101.49663757 40.72683716 102.49301147 C42.10818696 106.38778743 43.48962757 110.28253107 44.87153625 114.17710876 C47.37909569 121.24517886 49.88016077 128.31552842 52.37890625 135.38671875 C59.10375321 154.41203081 65.85582923 173.42547153 72.73822021 192.39440918 C77.20650509 204.71720642 81.52503599 217.08524266 85.765625 229.48828125 C87.21348635 233.72246298 88.68033222 237.94897502 90.171875 242.16796875 C90.50396973 243.10769531 90.83606445 244.04742188 91.17822266 245.015625 C91.7898933 246.74180436 92.40398212 248.46712961 93.02099609 250.19140625 C95 255.7814576 95 255.7814576 95 258 C47.48 258 -0.04 258 -49 258 C-49.33 255.36 -49.66 252.72 -50 250 C-50.27339706 250.8224118 -50.54679413 251.64482361 -50.82847595 252.49215698 C-53.40199391 260.23272641 -55.97694549 267.9728171 -58.55351925 275.71236992 C-59.87819075 279.69160878 -61.20230204 283.67103225 -62.52514648 287.65087891 C-63.80116096 291.48976703 -65.07862941 295.32816844 -66.35711861 299.16623306 C-66.84526225 300.63251538 -67.33287673 302.09897396 -67.81995964 303.56560898 C-68.50089843 305.61565668 -69.18369545 307.66507641 -69.86694336 309.71435547 C-70.25555038 310.88239716 -70.64415741 312.05043884 -71.04454041 313.25387573 C-72 316 -72 316 -73 318 C-88.84 318 -104.68 318 -121 318 C-118.75014137 307.87563616 -118.75014137 307.87563616 -117.36206055 303.89746094 C-117.0487529 302.99143127 -116.73544525 302.08540161 -116.41264343 301.1519165 C-116.07408829 300.18912781 -115.73553314 299.22633911 -115.38671875 298.234375 C-114.84450432 296.67248444 -114.84450432 296.67248444 -114.29133606 295.07904053 C-113.09453615 291.63445082 -111.890917 288.19228289 -110.6875 284.75 C-109.83535589 282.30033245 -108.98380556 279.85045828 -108.1328125 277.40039062 C-106.79535867 273.54981838 -105.457636 269.69934213 -104.11776733 265.84960938 C-99.65136945 253.01480701 -95.22889471 240.16502115 -90.81112671 227.31341553 C-88.61830652 220.9348061 -86.42230089 214.55729282 -84.2265625 208.1796875 C-84.0099188 207.55040974 -83.79327511 206.92113197 -83.57006645 206.27278519 C-78.67543484 192.05557276 -73.77994813 177.83865725 -68.875 163.625 C-68.27815399 161.89533997 -68.27815399 161.89533997 -67.66925049 160.1307373 C-62.70734435 145.75787938 -57.68590996 131.40888328 -52.56689453 117.09130859 C-49.48443102 108.44278288 -46.56223623 99.74881155 -43.68847656 91.02905273 C-39.50104942 78.38357135 -35.08962191 65.81609066 -30.66918945 53.25048828 C-27.63777082 44.62392557 -24.64344276 35.99158269 -21.80078125 27.30078125 C-21.07364929 25.10036658 -20.34544482 22.90030908 -19.61712646 20.70028687 C-19.16962233 19.33380174 -18.72904148 17.96502678 -18.29595947 16.59390259 C-15.00333788 6.17007815 -12.20081557 -1.54930991 0 0 Z " fill="#CB9903" transform="translate(683,370)"/>
<path d="M0 0 C0.66 0 1.32 0 2 0 C5.10545374 9.45791111 8.20956835 18.91626118 11.3125 28.375 C11.65469322 29.41811152 11.65469322 29.41811152 12.00379944 30.48229599 C19.05307826 51.97207276 26.06263223 73.47375591 33 95 C12.54 95 -7.92 95 -29 95 C-28.34117562 90.38822932 -27.78635633 86.85307392 -26.39282227 82.57250977 C-26.06448898 81.55415543 -25.7361557 80.53580109 -25.39787292 79.48658752 C-25.04098892 78.3991777 -24.68410492 77.31176788 -24.31640625 76.19140625 C-23.94481888 75.04328964 -23.57323151 73.89517303 -23.19038391 72.71226501 C-21.98606035 68.99404348 -20.77420445 65.27832197 -19.5625 61.5625 C-18.73766508 59.0212957 -17.91475316 56.47947124 -17.09228516 53.9375 C-16.88888016 53.30884977 -16.68547516 52.68019955 -16.47590637 52.03249931 C-15.86283939 50.13755306 -15.24977906 48.24260466 -14.63671875 46.34765625 C-14.03244049 44.48272018 -14.03244049 44.48272018 -13.41595459 42.58010864 C-10.17565322 32.57188023 -6.99634369 22.54591393 -3.875 12.5 C-3.56394821 11.49986374 -3.56394821 11.49986374 -3.24661255 10.47952271 C-2.16096835 6.98740835 -1.07844946 3.4943428 0 0 Z " fill="#010000" transform="translate(678,486)"/>
</svg>
