<?xml version="1.0" encoding="UTF-8"?>
<svg version="1.1" xmlns="http://www.w3.org/2000/svg" width="225" height="225">
<path d="M0 0 C74.25 0 148.5 0 225 0 C225 74.25 225 148.5 225 225 C150.75 225 76.5 225 0 225 C0 150.75 0 76.5 0 0 Z " fill="#FEFEFE" transform="translate(0,0)"/>
<path d="M0 0 C0.84051407 -0.00807175 1.68102814 -0.01614349 2.54701233 -0.02445984 C4.33511277 -0.03832669 6.12323997 -0.04903714 7.91137695 -0.05688477 C10.61788293 -0.07395217 13.32312035 -0.11779453 16.02929688 -0.16210938 C24.97904748 -0.24253209 32.71684066 -0.29010277 40.72265625 4.23828125 C41.42898193 4.57045654 42.13530762 4.90263184 42.86303711 5.24487305 C45.23077805 6.50971982 46.31098559 7.9796082 47.72265625 10.23828125 C47.72265625 10.89828125 47.72265625 11.55828125 47.72265625 12.23828125 C48.38265625 12.23828125 49.04265625 12.23828125 49.72265625 12.23828125 C53.60499175 20.88687686 55.65900439 29.54009736 52.95703125 38.88671875 C51.4671816 42.44580403 49.91487365 45.02077208 47.34765625 47.92578125 C46.81140625 48.68890625 46.27515625 49.45203125 45.72265625 50.23828125 C46.87087381 54.91010718 49.05605255 58.94555225 51.41796875 63.09765625 C51.77027557 63.72810852 52.1225824 64.35856079 52.48556519 65.00811768 C53.60142358 67.0042654 54.72381907 68.99661614 55.84765625 70.98828125 C56.97829473 72.99440775 58.10735074 75.00133658 59.23117065 77.0112915 C59.92820959 78.25783985 60.62919984 79.50218858 61.33450317 80.74407959 C63.72265625 85.01313213 63.72265625 85.01313213 63.72265625 87.23828125 C54.15265625 87.23828125 44.58265625 87.23828125 34.72265625 87.23828125 C32.74265625 83.60828125 30.76265625 79.97828125 28.72265625 76.23828125 C27.12408162 73.38067419 25.52237856 70.52561311 23.91015625 67.67578125 C19.84765625 60.48828125 19.84765625 60.48828125 18.72265625 58.23828125 C18.39265625 67.80828125 18.06265625 77.37828125 17.72265625 87.23828125 C8.81265625 87.23828125 -0.09734375 87.23828125 -9.27734375 87.23828125 C-9.29989412 76.04254522 -9.31825845 64.84682415 -9.32915592 53.65107059 C-9.33438491 48.4530001 -9.34148285 43.25494589 -9.3527832 38.05688477 C-9.36361151 33.04485857 -9.36962046 28.03284807 -9.37222099 23.02081108 C-9.37407534 21.10415843 -9.37769615 19.18750668 -9.38307381 17.27086067 C-9.3902835 14.59600053 -9.39133472 11.92120611 -9.39086914 9.24633789 C-9.39446442 8.44576965 -9.39805969 7.64520142 -9.40176392 6.82037354 C-9.38691015 -1.01343547 -7.06877552 0.06394814 0 0 Z " fill="#3D82E4" transform="translate(45.27734375,67.76171875)"/>
<path d="M0 0 C0 0.66 0 1.32 0 2 C0.99 2 1.98 2 3 2 C3 2.66 3 3.32 3 4 C3.99 4.33 4.98 4.66 6 5 C7.25390625 7.578125 7.25390625 7.578125 8.5625 11.25 C8.81153076 11.93964844 9.06056152 12.62929687 9.31713867 13.33984375 C12.33760208 21.77887344 15.19407899 30.2779176 18.10009766 38.75683594 C20.9497881 47.04119363 23.88085595 55.28967499 26.9375 63.5 C27.30270752 64.49 27.66791504 65.48 28.04418945 66.5 C29.72370467 70.96720461 31.52857916 74.90910773 34 79 C34.1875 82.8125 34.1875 82.8125 34 86 C31.45638265 87.27180867 29.70156322 87.11338091 26.85449219 87.09765625 C25.77866882 87.09435303 24.70284546 87.0910498 23.59442139 87.08764648 C22.42373108 87.07934814 21.25304077 87.0710498 20.046875 87.0625 C18.83992981 87.05871338 17.63298462 87.05492676 16.38946533 87.05102539 C11.21695807 87.03468967 6.0445293 87.00684591 0.87207031 86.97949219 C-2.90299095 86.96121801 -6.67803857 86.9492322 -10.453125 86.9375 C-11.59952454 86.92920166 -12.74592407 86.92090332 -13.92706299 86.91235352 C-20.95797282 86.89149896 -27.89414273 87.20738017 -34.90106201 87.79527283 C-39.30264225 88.08605731 -43.60686636 87.87775116 -48 87.5625 C-53.95253588 87.19482835 -59.84804656 86.94283271 -65.8125 87 C-70.34114131 87.04277347 -74.5528828 86.84706994 -79 86 C-79 85.67 -79 85.34 -79 85 C-69.76 85 -60.52 85 -51 85 C-52.98 81.37 -54.96 77.74 -57 74 C-57 73.34 -57 72.68 -57 72 C-56.34 72 -55.68 72 -55 72 C-53 75 -53 75 -53 78 C-51.515 78.495 -51.515 78.495 -50 79 C-48.00902154 76.01353231 -47.05875074 73.40312738 -46 70 C-45.34 70 -44.68 70 -44 70 C-44 67.36 -44 64.72 -44 62 C-43.34 61.67 -42.68 61.34 -42 61 C-41.42123639 58.68494555 -40.93519779 56.34628373 -40.5 54 C-40.06480221 51.65371627 -39.57876361 49.31505445 -39 47 C-38.34 46.67 -37.68 46.34 -37 46 C-37 44.68 -37 43.36 -37 42 C-36.01 42 -35.02 42 -34 42 C-33.87625 40.906875 -33.7525 39.81375 -33.625 38.6875 C-32.97229869 33.41859235 -31.98735937 28.21479126 -31 23 C-30.34 23 -29.68 23 -29 23 C-28.67 21.35 -28.34 19.7 -28 18 C-27.34 18 -26.68 18 -26 18 C-25.67 16.35 -25.34 14.7 -25 13 C-24.34 13 -23.68 13 -23 13 C-23 11.02 -23 9.04 -23 7 C-22.360625 6.731875 -21.72125 6.46375 -21.0625 6.1875 C-18.66868314 5.11332248 -18.66868314 5.11332248 -18 2 C-11.97091661 -0.961655 -6.4725558 -1.31848359 0 0 Z " fill="#CAC7C0" transform="translate(160,70)"/>
<path d="M0 0 C0.84051407 -0.00807175 1.68102814 -0.01614349 2.54701233 -0.02445984 C4.33511277 -0.03832669 6.12323997 -0.04903714 7.91137695 -0.05688477 C10.61788293 -0.07395217 13.32312035 -0.11779453 16.02929688 -0.16210938 C24.97904748 -0.24253209 32.71684066 -0.29010277 40.72265625 4.23828125 C41.42898193 4.57045654 42.13530762 4.90263184 42.86303711 5.24487305 C45.23077805 6.50971982 46.31098559 7.9796082 47.72265625 10.23828125 C47.72265625 10.89828125 47.72265625 11.55828125 47.72265625 12.23828125 C48.38265625 12.23828125 49.04265625 12.23828125 49.72265625 12.23828125 C53.60499175 20.88687686 55.65900439 29.54009736 52.95703125 38.88671875 C51.4671816 42.44580403 49.91487365 45.02077208 47.34765625 47.92578125 C46.81140625 48.68890625 46.27515625 49.45203125 45.72265625 50.23828125 C46.87087381 54.91010718 49.05605255 58.94555225 51.41796875 63.09765625 C51.77027557 63.72810852 52.1225824 64.35856079 52.48556519 65.00811768 C53.60142358 67.0042654 54.72381907 68.99661614 55.84765625 70.98828125 C56.97829473 72.99440775 58.10735074 75.00133658 59.23117065 77.0112915 C59.92820959 78.25783985 60.62919984 79.50218858 61.33450317 80.74407959 C63.72265625 85.01313213 63.72265625 85.01313213 63.72265625 87.23828125 C58.44265625 87.23828125 53.16265625 87.23828125 47.72265625 87.23828125 C46.80484375 85.59601563 45.88703125 83.95375 44.94140625 82.26171875 C44.34996826 81.20436523 43.75853027 80.14701172 43.14916992 79.05761719 C41.86214302 76.7565938 40.57585036 74.45515957 39.2902832 72.15332031 C35.21633158 64.86777468 35.21633158 64.86777468 31.046875 57.63671875 C30.67691406 57.00330566 30.30695313 56.36989258 29.92578125 55.71728516 C28.98248554 54.11141491 28.0306538 52.51056711 27.078125 50.91015625 C25.754883 48.30180602 25.12771599 46.12104409 24.72265625 43.23828125 C25.40972656 43.01914063 26.09679687 42.8 26.8046875 42.57421875 C32.57990146 40.59867936 32.57990146 40.59867936 36.84765625 36.42578125 C38.6592715 29.82632568 37.94943627 25.11563057 34.72265625 19.23828125 C30.96546902 16.39733697 26.3031689 16.88646984 21.80078125 16.82421875 C21.03813965 16.80657471 20.27549805 16.78893066 19.48974609 16.77075195 C16.65092749 16.70786138 13.81176106 16.6615529 10.97265625 16.61328125 C4.62015625 16.48953125 -1.73234375 16.36578125 -8.27734375 16.23828125 C-8.27734375 39.66828125 -8.27734375 63.09828125 -8.27734375 87.23828125 C-8.60734375 87.23828125 -8.93734375 87.23828125 -9.27734375 87.23828125 C-9.30046644 76.04254881 -9.31825846 64.84682201 -9.32915592 53.65107059 C-9.33438491 48.4530001 -9.34148285 43.25494589 -9.3527832 38.05688477 C-9.36361151 33.04485857 -9.36962046 28.03284807 -9.37222099 23.02081108 C-9.37407534 21.10415843 -9.37769615 19.18750668 -9.38307381 17.27086067 C-9.3902835 14.59600053 -9.39133472 11.92120611 -9.39086914 9.24633789 C-9.39446442 8.44576965 -9.39805969 7.64520142 -9.40176392 6.82037354 C-9.38691015 -1.01343547 -7.06877552 0.06394814 0 0 Z " fill="#78A8EB" transform="translate(45.27734375,67.76171875)"/>
<path d="M0 0 C5.69254239 -0.02483991 11.38505276 -0.04292602 17.07763672 -0.05493164 C19.01156159 -0.05994013 20.94548271 -0.06674882 22.87939453 -0.07543945 C25.6696058 -0.08765831 28.45976672 -0.09326329 31.25 -0.09765625 C32.10553467 -0.10281754 32.96106934 -0.10797882 33.8425293 -0.11329651 C47.06171517 -0.11451377 47.06171517 -0.11451377 51.5 2.4375 C53 4 53 4 53 6 C54.32 6 55.64 6 57 6 C57.28875 6.639375 57.5775 7.27875 57.875 7.9375 C58.82823451 10.15206079 58.82823451 10.15206079 61 11 C61 11.99 61 12.98 61 14 C62.32 14 63.64 14 65 14 C68.76848125 20.88157445 69.16467414 27.02377954 69.125 34.6875 C69.12886719 35.44611328 69.13273437 36.20472656 69.13671875 36.98632812 C69.13096158 40.2477639 69.03828751 42.88513748 68 46 C67.34 46 66.68 46 66 46 C65.71125 46.61875 65.4225 47.2375 65.125 47.875 C64 50 64 50 62 52 C61.97691403 54.22128555 61.97691403 54.22128555 62.375 56.625 C62.48585938 57.44226563 62.59671875 58.25953125 62.7109375 59.1015625 C62.80632812 59.72804687 62.90171875 60.35453125 63 61 C64.65 61.66 66.3 62.32 68 63 C68.495 66.465 68.495 66.465 69 70 C69.66 70 70.32 70 71 70 C71 71.98 71 73.96 71 76 C71.66 76 72.32 76 73 76 C73 76.66 73 77.32 73 78 C74.32 78 75.64 78 77 78 C77.33 79.32 77.66 80.64 78 82 C76.02 82.99 76.02 82.99 74 84 C74 83.34 74 82.68 74 82 C73.34 82 72.68 82 72 82 C71.34 80.02 70.68 78.04 70 76 C69.01 76 68.02 76 67 76 C64.9322565 72.43111571 62.90054161 68.84297846 60.875 65.25 C60.28589844 64.23421875 59.69679687 63.2184375 59.08984375 62.171875 C58.54199219 61.1921875 57.99414062 60.2125 57.4296875 59.203125 C56.91647949 58.30239258 56.40327148 57.40166016 55.87451172 56.47363281 C55 54 55 54 55.72314453 51.85449219 C56.8107977 50.27479554 57.90474195 48.69943345 59 47.125 C63.98706371 39.33271295 64.15353723 30.61432572 62.32421875 21.7109375 C61.61588135 19.11258134 60.85920599 16.55204637 60 14 C59.34 14 58.68 14 58 14 C55 10.53846154 55 10.53846154 55 8 C54.175 7.731875 53.35 7.46375 52.5 7.1875 C48.63674527 5.87675286 44.81980938 4.43242852 41 3 C28.13 3 15.26 3 2 3 C1.67 31.38 1.34 59.76 1 89 C9.91 89 18.82 89 28 89 C28 79.1 28 69.2 28 59 C30.57633493 61.57633493 31.8769131 63.30581018 33.55859375 66.421875 C34.02716797 67.28296875 34.49574219 68.1440625 34.97851562 69.03125 C35.45998047 69.9284375 35.94144531 70.825625 36.4375 71.75 C37.8559927 74.36875576 39.27565956 76.9866885 40.70532227 79.59936523 C41.51960501 81.10923555 42.31255451 82.63100627 43.07397461 84.16821289 C44.88126294 87.80126281 44.88126294 87.80126281 48.19921875 89.90234375 C49.02035156 89.91394531 49.84148437 89.92554688 50.6875 89.9375 C52.13962891 89.98197266 52.13962891 89.98197266 53.62109375 90.02734375 C54.73613281 90.01832031 55.85117188 90.00929688 57 90 C58.31097656 90.00128906 59.62195313 90.00257813 60.97265625 90.00390625 C63.13677649 90.00440709 65.30031543 89.99954511 67.46435547 89.97998047 C72.11498732 89.94825999 76.67433281 90.16378922 81.3125 90.5625 C86.89792184 90.98722479 92.25573822 90.89276793 97.83984375 90.53125 C110.30853748 89.81988505 122.76536267 89.88969033 135.25 89.9375 C137.56770735 89.94253144 139.88541578 89.9470914 142.203125 89.95117188 C147.80210732 89.96203252 153.40104839 89.97863698 159 90 C158.70944429 88.57389656 158.41153047 87.1492912 158.1105957 85.7253418 C157.94550003 84.93185837 157.78040436 84.13837494 157.61030579 83.32084656 C157.03568811 81.13571333 156.30051488 79.37488997 155.23046875 77.39453125 C151.89068859 71.13302194 149.70614867 64.35183596 147.3125 57.6875 C146.78340883 56.22565177 146.25427419 54.76381928 145.72509766 53.30200195 C141.89658756 42.68442175 138.25576125 32.01231401 134.7668457 21.27807617 C134.4287085 20.24142822 134.09057129 19.20478027 133.7421875 18.13671875 C133.4519873 17.23655029 133.16178711 16.33638184 132.86279297 15.40893555 C131.42548043 10.8875962 131.42548043 10.8875962 128 8 C128 7.34 128 6.68 128 6 C127.01 6 126.02 6 125 6 C125 5.34 125 4.68 125 4 C124.13375 4.2784375 124.13375 4.2784375 123.25 4.5625 C121 5 121 5 119.1875 4.46875 C116.43612717 3.87917011 114.48502779 4.32571747 111.75 4.9375 C110.85796875 5.13214844 109.9659375 5.32679687 109.046875 5.52734375 C108.37140625 5.68332031 107.6959375 5.83929688 107 6 C106.896875 6.639375 106.79375 7.27875 106.6875 7.9375 C106.460625 8.618125 106.23375 9.29875 106 10 C105.01 10.33 104.02 10.66 103 11 C102.814375 12.4540625 102.814375 12.4540625 102.625 13.9375 C102.41875 14.948125 102.2125 15.95875 102 17 C101.34 17.33 100.68 17.66 100 18 C99.34786708 20.02463255 99.34786708 20.02463255 99 22 C98.34 22 97.68 22 97 22 C96.505 24.475 96.505 24.475 96 27 C95.34 27 94.68 27 94 27 C94.061875 28.093125 94.12375 29.18625 94.1875 30.3125 C94.21703629 35.79640423 92.60575122 40.80042462 91 46 C90.01 46 89.02 46 88 46 C88.226875 46.515625 88.45375 47.03125 88.6875 47.5625 C89.06987777 50.54504664 88.16244988 52.31318228 86.90234375 54.984375 C85.30683817 58.5483615 84.18800752 62.2843169 83 66 C82.34 66 81.68 66 81 66 C81 68.64 81 71.28 81 74 C79.515 74.495 79.515 74.495 78 75 C78.99 70.71 79.98 66.42 81 62 C81.66 62 82.32 62 83 62 C83.103125 60.948125 83.20625 59.89625 83.3125 58.8125 C85.2102649 43.68460265 85.2102649 43.68460265 89 38 C89.66 38 90.32 38 91 38 C91 35.36 91 32.72 91 30 C91.66 30 92.32 30 93 30 C93 27.36 93 24.72 93 22 C93.66 22 94.32 22 95 22 C95.12375 21.236875 95.2475 20.47375 95.375 19.6875 C96 17 96 17 98 14 C98.99 14 99.98 14 101 14 C101.144375 13.236875 101.28875 12.47375 101.4375 11.6875 C102 9 102 9 103 6 C103.66 6 104.32 6 105 6 C105.33 4.68 105.66 3.36 106 2 C112.6643821 -0.53881223 119.95650965 -1.01234088 127 0 C129.42578125 1.8984375 129.42578125 1.8984375 131 4 C131 4.66 131 5.32 131 6 C131.66 6 132.32 6 133 6 C133.26554688 6.68707031 133.53109375 7.37414062 133.8046875 8.08203125 C134.33449219 9.43361328 134.33449219 9.43361328 134.875 10.8125 C135.39707031 12.15248047 135.39707031 12.15248047 135.9296875 13.51953125 C136.98832155 16.17711591 136.98832155 16.17711591 139 19 C139.77238768 21.47784222 140.47547287 23.92840075 141.125 26.4375 C141.39763672 27.44006836 141.39763672 27.44006836 141.67578125 28.46289062 C142.55418382 31.7948763 143 34.52536772 143 38 C143.66 38 144.32 38 145 38 C149.40774487 48.37357631 149.40774487 48.37357631 150 54 C150.66 54 151.32 54 152 54 C152.7145232 55.9053952 153.42808773 57.81115561 154.13671875 59.71875 C154.68339436 61.16335886 155.24655777 62.60192506 155.83203125 64.03125 C157.72117686 68.72154254 158.54992358 72.95914414 159 78 C159.99 78 160.98 78 162 78 C162.33 80.64 162.66 83.28 163 86 C163.66 86 164.32 86 165 86 C165 86.66 165 87.32 165 88 C164.34 88 163.68 88 163 88 C162.9175 88.61875 162.835 89.2375 162.75 89.875 C162 92 162 92 160.21962166 93.11736012 C157.86840285 94.05233004 156.25373281 94.24911404 153.73605347 94.24723816 C152.89202972 94.25143265 152.04800598 94.25562714 151.17840576 94.25994873 C150.2608551 94.25432922 149.34330444 94.24870972 148.39794922 94.24291992 C146.93885635 94.24576744 146.93885635 94.24576744 145.45028687 94.24867249 C142.2350051 94.25237731 139.01994919 94.24168129 135.8046875 94.23046875 C133.57317125 94.22927682 131.34165449 94.22882382 129.11013794 94.2290802 C124.43455869 94.22751591 119.75905607 94.21922935 115.08349609 94.20581055 C109.07969543 94.18880117 103.07597884 94.1849968 97.07215691 94.18575573 C92.46549675 94.18548431 87.8588551 94.18000799 83.25220108 94.17275429 C81.0377326 94.16956471 78.82326201 94.16759954 76.60879135 94.16686058 C73.52024482 94.1647012 70.4317889 94.15596622 67.34326172 94.14526367 C66.4216626 94.14571686 65.50006348 94.14617004 64.55053711 94.14663696 C63.71215302 94.14237198 62.87376892 94.13810699 62.00997925 94.13371277 C61.27958372 94.13203692 60.54918819 94.13036108 59.79665947 94.12863445 C58 94 58 94 56 93 C54.02440132 92.79533366 52.04411189 92.63450941 50.0625 92.5 C46.76955062 92.2759354 44.13836918 92.04612306 41 91 C41 90.34 41 89.68 41 89 C40.34 89 39.68 89 39 89 C39 88.01 39 87.02 39 86 C38.01 85.505 38.01 85.505 37 85 C36 84 36 84 35.9375 80.9375 C35.958125 79.968125 35.97875 78.99875 36 78 C34.68 77.67 33.36 77.34 32 77 C31.96132812 78.24716797 31.96132812 78.24716797 31.921875 79.51953125 C31.86515625 80.60621094 31.8084375 81.69289063 31.75 82.8125 C31.70359375 83.89144531 31.6571875 84.97039062 31.609375 86.08203125 C31 89 31 89 29.27392578 90.66186523 C26.60565455 92.23206006 25.08313506 92.36144626 22.0078125 92.328125 C21.05519531 92.32296875 20.10257813 92.3178125 19.12109375 92.3125 C18.13238281 92.291875 17.14367187 92.27125 16.125 92.25 C15.14402344 92.24484375 14.16304687 92.2396875 13.15234375 92.234375 C8.33635755 92.18238055 3.7323744 91.99460072 -1 91 C-2.08532128 86.64250862 -2.10590059 82.42697338 -2.03759766 77.96850586 C-2.02959641 77.17440811 -2.02159515 76.38031036 -2.01335144 75.56214905 C-1.98554935 72.94629008 -1.95004108 70.33060208 -1.9140625 67.71484375 C-1.89228241 65.89311605 -1.87083333 64.07138437 -1.84970093 62.24964905 C-1.80425885 58.43583081 -1.75504299 54.62208503 -1.703125 50.80834961 C-1.636851 45.92026026 -1.57958743 41.03211503 -1.52509499 36.1438818 C-1.4822507 32.38378753 -1.43482742 28.62376181 -1.38599777 24.86374092 C-1.36310554 23.06123093 -1.34159549 21.25870284 -1.32149124 19.45615959 C-1.2926814 16.93805313 -1.25775611 14.42010381 -1.22119141 11.90209961 C-1.21020164 10.78531326 -1.21020164 10.78531326 -1.19898987 9.64596558 C-1.14435003 6.29853466 -1.03369488 3.20227396 0 0 Z " fill="#D3CDBE" transform="translate(35,66)"/>
<path d="M0 0 C1.89526367 0.29394531 1.89526367 0.29394531 4 1 C5.3233586 3.60353068 6.3407768 6.01512948 7.3125 8.75 C7.60882324 9.54768799 7.90514648 10.34537598 8.21044922 11.16723633 C11.40913085 19.88393885 14.31381534 28.70417028 17.18896484 37.53173828 C17.96047556 39.8797134 18.7507389 42.22020631 19.55078125 44.55859375 C19.78651855 45.25057861 20.02225586 45.94256348 20.26513672 46.65551758 C20.89222374 48.49237705 21.52217272 50.32825878 22.15234375 52.1640625 C23 55 23 55 23 58 C18.74585377 58.02465622 14.49174502 58.04283899 10.23754883 58.05493164 C8.78929927 58.05997101 7.34105483 58.06680253 5.89282227 58.07543945 C3.81525412 58.08752247 1.73775303 58.09323211 -0.33984375 58.09765625 C-1.59144287 58.10289307 -2.84304199 58.10812988 -4.13256836 58.11352539 C-7 58 -7 58 -8 57 C-8.34933594 57.99902344 -8.69867188 58.99804688 -9.05859375 60.02734375 C-9.51807919 61.33078205 -9.97772279 62.6341646 -10.4375 63.9375 C-10.66759766 64.59685547 -10.89769531 65.25621094 -11.13476562 65.93554688 C-12.88671875 70.88671875 -12.88671875 70.88671875 -14 72 C-15.68608966 72.07205511 -17.37500659 72.08386068 -19.0625 72.0625 C-20.44115234 72.04896484 -20.44115234 72.04896484 -21.84765625 72.03515625 C-22.55792969 72.02355469 -23.26820312 72.01195312 -24 72 C-22.52072518 64.46842334 -20.19166629 57.41358827 -17.625 50.1875 C-16.8456678 47.97289767 -16.06701851 45.75805489 -15.2890625 43.54296875 C-14.9065332 42.45677246 -14.52400391 41.37057617 -14.12988281 40.25146484 C-13.02380543 37.06850491 -11.95510565 33.87544481 -10.8984375 30.67578125 C-9.59013062 26.72358392 -8.21431612 22.81408174 -6.72802734 18.92578125 C-5.35982437 15.3066045 -4.0937156 11.65067359 -2.8125 8 C-2.40354492 6.83791016 -2.40354492 6.83791016 -1.98632812 5.65234375 C-1.32348918 3.76848571 -0.66163914 1.88427976 0 0 Z " fill="#CA9A08" transform="translate(151,83)"/>
<path d="M0 0 C3.96 0 7.92 0 12 0 C11.63325183 7.21271394 11.63325183 7.21271394 8.6875 10.875 C4.73844763 13.99750652 3.10677164 15 -2 15 C3.11481363 25.64684771 8.7083243 35.95707488 14.60620117 46.19165039 C15.14607666 47.13258545 15.68595215 48.07352051 16.2421875 49.04296875 C16.7254248 49.87852295 17.20866211 50.71407715 17.70654297 51.57495117 C19 54 19 54 21 59 C16.71 59 12.42 59 8 59 C7.195625 57.515 6.39125 56.03 5.5625 54.5 C2.4230439 48.73932338 -0.78805855 43.02043677 -4.01538086 37.30859375 C-6.90335908 32.19328184 -6.90335908 32.19328184 -8 30 C-8.33 39.24 -8.66 48.48 -9 58 C-12.63 58 -16.26 58 -20 58 C-20 39.85 -20 21.7 -20 3 C-13.4 3 -6.8 3 0 3 C0 2.01 0 1.02 0 0 Z " fill="#1266DB" transform="translate(72,96)"/>
<path d="M0 0 C3.3 0 6.6 0 10 0 C10.31638428 0.93457031 10.63276855 1.86914062 10.95874023 2.83203125 C12.44685115 7.2229947 13.94138702 11.61175744 15.4375 16 C15.70778015 16.79365967 15.9780603 17.58731934 16.25653076 18.4050293 C20.02406558 29.45199457 23.9036849 40.43072997 28.23217773 51.2734375 C30.7293235 57.68363028 31.72319679 62.97758232 33 70 C16.5 70 0 70 -17 70 C-17 66.37 -17 62.74 -17 59 C-5.12 59 6.76 59 19 59 C15.15317984 48.72694627 15.15317984 48.72694627 11.27734375 38.46484375 C8.33040035 30.70656419 5.5991207 22.91924193 3.078125 15.01171875 C2.09320479 11.87783731 2.09320479 11.87783731 0 9 C-1.25316456 2.50632911 -1.25316456 2.50632911 0 0 Z " fill="#CB9907" transform="translate(160,85)"/>
<path d="M0 0 C5.69254239 -0.02483991 11.38505276 -0.04292602 17.07763672 -0.05493164 C19.01156159 -0.05994013 20.94548271 -0.06674882 22.87939453 -0.07543945 C25.6696058 -0.08765831 28.45976672 -0.09326329 31.25 -0.09765625 C32.10553467 -0.10281754 32.96106934 -0.10797882 33.8425293 -0.11329651 C47.06171517 -0.11451377 47.06171517 -0.11451377 51.5 2.4375 C53 4 53 4 53 6 C54.32 6 55.64 6 57 6 C57.28875 6.639375 57.5775 7.27875 57.875 7.9375 C58.82823451 10.15206079 58.82823451 10.15206079 61 11 C61 11.99 61 12.98 61 14 C62.32 14 63.64 14 65 14 C68.76848125 20.88157445 69.16467414 27.02377954 69.125 34.6875 C69.12886719 35.44611328 69.13273437 36.20472656 69.13671875 36.98632812 C69.13096158 40.2477639 69.03828751 42.88513748 68 46 C67.34 46 66.68 46 66 46 C65.71125 46.61875 65.4225 47.2375 65.125 47.875 C64 50 64 50 62 52 C61.97691403 54.22128555 61.97691403 54.22128555 62.375 56.625 C62.48585938 57.44226563 62.59671875 58.25953125 62.7109375 59.1015625 C62.80632812 59.72804687 62.90171875 60.35453125 63 61 C64.65 61.66 66.3 62.32 68 63 C68.495 66.465 68.495 66.465 69 70 C69.66 70 70.32 70 71 70 C71 71.98 71 73.96 71 76 C71.66 76 72.32 76 73 76 C73 76.66 73 77.32 73 78 C74.32 78 75.64 78 77 78 C77.33 79.32 77.66 80.64 78 82 C76.02 82.99 76.02 82.99 74 84 C74 83.34 74 82.68 74 82 C73.34 82 72.68 82 72 82 C71.34 80.02 70.68 78.04 70 76 C69.01 76 68.02 76 67 76 C64.9322565 72.43111571 62.90054161 68.84297846 60.875 65.25 C60.28589844 64.23421875 59.69679687 63.2184375 59.08984375 62.171875 C58.54199219 61.1921875 57.99414062 60.2125 57.4296875 59.203125 C56.91647949 58.30239258 56.40327148 57.40166016 55.87451172 56.47363281 C55 54 55 54 55.72314453 51.85449219 C56.8107977 50.27479554 57.90474195 48.69943345 59 47.125 C63.98706371 39.33271295 64.15353723 30.61432572 62.32421875 21.7109375 C61.61588135 19.11258134 60.85920599 16.55204637 60 14 C59.34 14 58.68 14 58 14 C55 10.53846154 55 10.53846154 55 8 C54.175 7.731875 53.35 7.46375 52.5 7.1875 C48.63674527 5.87675286 44.81980938 4.43242852 41 3 C28.13 3 15.26 3 2 3 C1.67 31.38 1.34 59.76 1 89 C9.91 89 18.82 89 28 89 C28 79.1 28 69.2 28 59 C30.60604339 61.60604339 31.90249755 63.36456094 33.59375 66.52734375 C34.06683594 67.40197266 34.53992188 68.27660156 35.02734375 69.17773438 C35.75630859 70.54381836 35.75630859 70.54381836 36.5 71.9375 C37.46585671 73.73983473 38.4345124 75.54067291 39.40625 77.33984375 C39.83228516 78.13769287 40.25832031 78.93554199 40.69726562 79.75756836 C41.95651578 82.04723131 41.95651578 82.04723131 43.66210938 84.10375977 C45 86 45 86 45 89 C42.55114847 88.02249585 41.25648306 87.44126117 39.91015625 85.125 C39.34540886 83.70922774 38.78290461 82.29255863 38.22265625 80.875 C36.57552416 78.34904663 34.81558716 77.89059759 32 77 C31.96132812 78.24716797 31.96132812 78.24716797 31.921875 79.51953125 C31.86515625 80.60621094 31.8084375 81.69289063 31.75 82.8125 C31.70359375 83.89144531 31.6571875 84.97039062 31.609375 86.08203125 C31 89 31 89 29.27392578 90.66186523 C26.60565455 92.23206006 25.08313506 92.36144626 22.0078125 92.328125 C21.05519531 92.32296875 20.10257813 92.3178125 19.12109375 92.3125 C18.13238281 92.291875 17.14367187 92.27125 16.125 92.25 C15.14402344 92.24484375 14.16304687 92.2396875 13.15234375 92.234375 C8.33635755 92.18238055 3.7323744 91.99460072 -1 91 C-2.08532128 86.64250862 -2.10590059 82.42697338 -2.03759766 77.96850586 C-2.02959641 77.17440811 -2.02159515 76.38031036 -2.01335144 75.56214905 C-1.98554935 72.94629008 -1.95004108 70.33060208 -1.9140625 67.71484375 C-1.89228241 65.89311605 -1.87083333 64.07138437 -1.84970093 62.24964905 C-1.80425885 58.43583081 -1.75504299 54.62208503 -1.703125 50.80834961 C-1.636851 45.92026026 -1.57958743 41.03211503 -1.52509499 36.1438818 C-1.4822507 32.38378753 -1.43482742 28.62376181 -1.38599777 24.86374092 C-1.36310554 23.06123093 -1.34159549 21.25870284 -1.32149124 19.45615959 C-1.2926814 16.93805313 -1.25775611 14.42010381 -1.22119141 11.90209961 C-1.21020164 10.78531326 -1.21020164 10.78531326 -1.19898987 9.64596558 C-1.14435003 6.29853466 -1.03369488 3.20227396 0 0 Z " fill="#CECFD0" transform="translate(35,66)"/>
<path d="M0 0 C2.21436603 6.6430981 2.01714869 14.5541713 -0.75 21 C-2.0997231 23.66546037 -3.36464047 25.41261948 -5.375 27.6875 C-5.91125 28.450625 -6.4475 29.21375 -7 30 C-5.85178244 34.67182593 -3.6666037 38.707271 -1.3046875 42.859375 C-0.95238068 43.48982727 -0.60007385 44.12027954 -0.23709106 44.76983643 C0.87876733 46.76598415 2.00116282 48.75833489 3.125 50.75 C4.25563848 52.7561265 5.38469449 54.76305533 6.5085144 56.77301025 C7.20555334 58.0195586 7.90654359 59.26390733 8.61184692 60.50579834 C11 64.77485088 11 64.77485088 11 67 C7.04 67 3.08 67 -1 67 C-1.64066406 65.82824219 -2.28132813 64.65648437 -2.94140625 63.44921875 C-7.21971117 55.66346719 -11.54165416 47.98551998 -16.39453125 40.5390625 C-24 28.51094891 -24 28.51094891 -24 25 C-22.9275 24.608125 -21.855 24.21625 -20.75 23.8125 C-17.09037705 22.24197355 -15.16192163 20.40918411 -13 17 C-11.77498769 13.43705571 -11.90009864 9.9901356 -11.9375 6.25 C-11.94652344 5.07953125 -11.95554687 3.9090625 -11.96484375 2.703125 C-11.98224609 1.36507812 -11.98224609 1.36507812 -12 0 C-7.65795398 -1.16156645 -4.32314734 -1.44104911 0 0 Z " fill="#1567DB" transform="translate(98,88)"/>
<path d="M0 0 C0.66 0 1.32 0 2 0 C2 0.66 2 1.32 2 2 C4.31 2 6.62 2 9 2 C9.33 1.34 9.66 0.68 10 0 C9.44951723 6.06219155 8.09608718 11.2388175 6 16.9375 C5.69602295 17.78578369 5.3920459 18.63406738 5.07885742 19.50805664 C4.0612407 22.34191631 3.03143248 25.17114131 2 28 C0.4345679 32.31144147 -1.12726511 36.62417529 -2.6875 40.9375 C-3.26673218 42.53380249 -3.26673218 42.53380249 -3.85766602 44.16235352 C-6.19467215 50.63963313 -8.3765526 57.11299329 -10.24609375 63.7421875 C-11 66 -11 66 -13 69 C-15.6015625 69.29296875 -15.6015625 69.29296875 -18.625 69.1875 C-20.12933594 69.14689453 -20.12933594 69.14689453 -21.6640625 69.10546875 C-22.43492188 69.07066406 -23.20578125 69.03585938 -24 69 C-23.05409355 63.75451878 -21.80282874 59.31624064 -19.5 54.5 C-17.91383514 51.17550912 -16.68075899 48.18230501 -16 44.5625 C-15.31470523 40.93748283 -14.16041633 37.82110346 -12.6875 34.4375 C-10.62512755 29.68980976 -8.98343852 24.94851147 -7.5 20 C-5.43621425 13.13084687 -2.91902753 6.5584959 0 0 Z " fill="#CB9A07" transform="translate(136,86)"/>
<path d="M0 0 C0.99 1.32 1.98 2.64 3 4 C5.33075929 3.04134491 5.33075929 3.04134491 7 0 C10.42031872 5.37062811 12.81237299 10.857195 14.8125 16.875 C15.03123779 17.52927979 15.24997559 18.18355957 15.4753418 18.85766602 C16.38856517 21.69435464 17 24.00017798 17 27 C12.74585377 27.02465622 8.49174502 27.04283899 4.23754883 27.05493164 C2.78929927 27.05997101 1.34105483 27.06680253 -0.10717773 27.07543945 C-2.18474588 27.08752247 -4.26224697 27.09323211 -6.33984375 27.09765625 C-7.59144287 27.10289307 -8.84304199 27.10812988 -10.13256836 27.11352539 C-13 27 -13 27 -14 26 C-14.34933594 26.99902344 -14.69867188 27.99804688 -15.05859375 29.02734375 C-15.51807919 30.33078205 -15.97772279 31.6341646 -16.4375 32.9375 C-16.66759766 33.59685547 -16.89769531 34.25621094 -17.13476562 34.93554688 C-18.88671875 39.88671875 -18.88671875 39.88671875 -20 41 C-21.68608966 41.07205511 -23.37500659 41.08386068 -25.0625 41.0625 C-25.98160156 41.05347656 -26.90070313 41.04445312 -27.84765625 41.03515625 C-28.55792969 41.02355469 -29.26820312 41.01195312 -30 41 C-28.59918425 34.19105977 -26.74613686 27.65977228 -24.5625 21.0625 C-24.26279297 20.11826172 -23.96308594 19.17402344 -23.65429688 18.20117188 C-23.35716797 17.30076172 -23.06003906 16.40035156 -22.75390625 15.47265625 C-22.48908447 14.66062744 -22.2242627 13.84859863 -21.95141602 13.01196289 C-21 11 -21 11 -18 9 C-17.67 10.65 -17.34 12.3 -17 14 C-15.35 14.33 -13.7 14.66 -12 15 C-12 15.66 -12 16.32 -12 17 C-7.05 17 -2.1 17 3 17 C2.505 15.68 2.01 14.36 1.5 13 C-0.03368319 8.45655355 -0.26001797 4.76699613 0 0 Z " fill="#CB9905" transform="translate(157,114)"/>
<path d="M0 0 C0 20.79 0 41.58 0 63 C-3.63 63 -7.26 63 -11 63 C-11.09040815 55.3765068 -11.16377739 47.75321345 -11.20724869 40.12931442 C-11.22811412 36.58909928 -11.25641126 33.04927026 -11.30175781 29.50927734 C-11.35357738 25.43843909 -11.37295369 21.36800573 -11.390625 17.296875 C-11.41127014 16.02696716 -11.43191528 14.75705933 -11.45318604 13.44866943 C-11.45348816 12.26774719 -11.45379028 11.08682495 -11.45410156 9.87011719 C-11.46298401 8.83087097 -11.47186646 7.79162476 -11.48101807 6.72088623 C-11 4 -11 4 -9.40911865 1.63311768 C-7 0 -7 0 0 0 Z " fill="#1266DE" transform="translate(48,92)"/>
<path d="M0 0 C0.94875 0.04125 1.8975 0.0825 2.875 0.125 C4.76804397 4.17758443 6.59226521 8.12600373 7.8125 12.4375 C8.75941062 15.72383685 9.9089578 18.67389059 11.25 21.8125 C13.29247026 26.62562556 15.02638663 31.44807967 16.62890625 36.421875 C18.69888364 42.57340655 20.97454998 48.65156272 23.23364258 54.73583984 C23.57419678 55.66090332 23.91475098 56.5859668 24.265625 57.5390625 C24.57532227 58.3738916 24.88501953 59.2087207 25.20410156 60.06884766 C25.875 62.125 25.875 62.125 25.875 64.125 C13.995 64.125 2.115 64.125 -10.125 64.125 C-10.125 67.425 -10.125 70.725 -10.125 74.125 C-10.62 73.135 -10.62 73.135 -11.125 72.125 C-12.445 72.125 -13.765 72.125 -15.125 72.125 C-14.67303755 70.51902675 -14.21317673 68.91527492 -13.75 67.3125 C-13.49476563 66.41917969 -13.23953125 65.52585937 -12.9765625 64.60546875 C-12.125 62.125 -12.125 62.125 -10.125 59.125 C-9.63 59.62 -9.63 59.62 -9.125 60.125 C-6.90812006 60.28373955 -4.68644702 60.37633837 -2.46484375 60.44140625 C-1.80037735 60.46218735 -1.13591095 60.48296844 -0.4513092 60.50437927 C1.67818543 60.56993658 3.80780668 60.62878785 5.9375 60.6875 C7.37826847 60.73067939 8.81902399 60.77429349 10.25976562 60.81835938 C13.7980404 60.92562393 17.33645869 61.02687371 20.875 61.125 C15.67570958 45.41174673 10.47677137 29.70028545 4.875 14.125 C4.47410156 12.99835938 4.07320312 11.87171875 3.66015625 10.7109375 C3.31855469 9.79570313 2.97695312 8.88046875 2.625 7.9375 C2.35171875 7.20144531 2.0784375 6.46539062 1.796875 5.70703125 C0.89915791 3.76613009 0.89915791 3.76613009 -2.125 3.125 C-2.30675781 3.83785156 -2.48851562 4.55070312 -2.67578125 5.28515625 C-4.98199373 14.07241715 -4.98199373 14.07241715 -6.6875 17.875 C-8.18481272 21.26022876 -9.13135361 24.55956297 -10.125 28.125 C-12.73146858 36.31675841 -15.62046826 44.41439092 -18.47167969 52.52319336 C-21.10576204 60.03032807 -23.64009478 67.56722374 -26.125 75.125 C-27.115 74.795 -28.105 74.465 -29.125 74.125 C-27.80689061 68.60503017 -26.26080907 63.24743377 -24.4375 57.875 C-24.17622314 57.09833984 -23.91494629 56.32167969 -23.64575195 55.52148438 C-21.46326666 49.06117297 -19.2226304 42.62130473 -16.95361328 36.19091797 C-15.18884406 31.18670937 -13.45627557 26.17292685 -11.75 21.1484375 C-11.14345581 19.37049805 -11.14345581 19.37049805 -10.5246582 17.55664062 C-9.72685639 15.21577922 -8.9335994 12.87336313 -8.14526367 10.52929688 C-7.78150635 9.46517578 -7.41774902 8.40105469 -7.04296875 7.3046875 C-6.72094482 6.35319824 -6.3989209 5.40170898 -6.06713867 4.42138672 C-4.61535319 0.88277718 -3.88260111 0.15530404 0 0 Z " fill="#AAA090" transform="translate(153.125,79.875)"/>
<path d="M0 0 C4.71484816 7.07227224 7.50187047 15.53179805 8 24 C8.99 24 9.98 24 11 24 C11.495 27.96 11.495 27.96 12 32 C12.66 32 13.32 32 14 32 C14 32.66 14 33.32 14 34 C13.34 34 12.68 34 12 34 C11.9175 34.61875 11.835 35.2375 11.75 35.875 C11 38 11 38 9.21962166 39.11736012 C6.86840285 40.05233004 5.25373281 40.24911404 2.73605347 40.24723816 C1.47001785 40.25352989 1.47001785 40.25352989 0.17840576 40.25994873 C-0.7391449 40.25432922 -1.65669556 40.24870972 -2.60205078 40.24291992 C-4.06114365 40.24576744 -4.06114365 40.24576744 -5.54971313 40.24867249 C-8.7649949 40.25237731 -11.98005081 40.24168129 -15.1953125 40.23046875 C-17.42682875 40.22927682 -19.65834551 40.22882382 -21.88986206 40.2290802 C-26.56544131 40.22751591 -31.24094393 40.21922935 -35.91650391 40.20581055 C-41.92030457 40.18880117 -47.92402116 40.1849968 -53.92784309 40.18575573 C-58.53450325 40.18548431 -63.1411449 40.18000799 -67.74779892 40.17275429 C-69.9622674 40.16956471 -72.17673799 40.16759954 -74.39120865 40.16686058 C-77.47975518 40.1647012 -80.5682111 40.15596622 -83.65673828 40.14526367 C-84.5783374 40.14571686 -85.49993652 40.14617004 -86.44946289 40.14663696 C-87.28784698 40.14237198 -88.12623108 40.13810699 -88.99002075 40.13371277 C-89.72041628 40.13203692 -90.45081181 40.13036108 -91.20334053 40.12863445 C-93 40 -93 40 -95 39 C-96.97559868 38.79533366 -98.95588811 38.63450941 -100.9375 38.5 C-104.23044938 38.2759354 -106.86163082 38.04612306 -110 37 C-110 36.34 -110 35.68 -110 35 C-110.66 35 -111.32 35 -112 35 C-112 34.01 -112 33.02 -112 32 C-112.66 31.67 -113.32 31.34 -114 31 C-115 30 -115 30 -115.0625 26.9375 C-115.041875 25.968125 -115.02125 24.99875 -115 24 C-112 26 -112 26 -110.5625 29.5 C-109.38823002 32.97859575 -109.38823002 32.97859575 -107.1953125 34.1796875 C-99.8584755 36.92121022 -91.25470113 36.05280143 -83.53564453 35.97875977 C-78.88510692 35.94959798 -74.32562647 36.16379272 -69.6875 36.5625 C-64.10207816 36.98722479 -58.74426178 36.89276793 -53.16015625 36.53125 C-40.69146252 35.81988505 -28.23463733 35.88969033 -15.75 35.9375 C-13.43229265 35.94253144 -11.11458422 35.9470914 -8.796875 35.95117188 C-3.19789268 35.96203252 2.40104839 35.97863698 8 36 C7.68523194 34.55166274 7.36853846 33.10374383 7.05102539 31.65600586 C6.87487198 30.84965195 6.69871857 30.04329803 6.51722717 29.21250916 C5.98090668 26.91832573 5.28235055 24.76088074 4.4375 22.5625 C2.76225948 17.77368115 2.3052566 13.04199694 2 8 C1.34 8 0.68 8 0 8 C0 5.36 0 2.72 0 0 Z " fill="#E6E7E6" transform="translate(186,120)"/>
<path d="M0 0 C3.3 0 6.6 0 10 0 C11.67470072 4.85556199 13.34698157 9.71194828 15.01708984 14.5690918 C15.58479532 16.21905651 16.15314496 17.86879975 16.72216797 19.51831055 C17.54306483 21.89833639 18.36159111 24.27916655 19.1796875 26.66015625 C19.43185028 27.38960953 19.68401306 28.11906281 19.94381714 28.87062073 C21.43366634 33.21546744 22.77571429 37.57275934 24 42 C21.525 42.495 21.525 42.495 19 43 C18.45533613 38.915021 18 35.1274515 18 31 C17.01 31.33 16.02 31.66 15 32 C14.67 30.35 14.34 28.7 14 27 C13.34 27 12.68 27 12 27 C12.33 29.97 12.66 32.94 13 36 C12.01 36.495 12.01 36.495 11 37 C8.24685734 30.46320877 5.89017908 23.84999147 3.7512207 17.09155273 C2.76406062 14.03091667 1.80019251 11.70028877 0 9 C-1.25316456 2.50632911 -1.25316456 2.50632911 0 0 Z " fill="#CB9B0A" transform="translate(160,85)"/>
<path d="M0 0 C0.92692657 -0.0033284 1.85385315 -0.0066568 2.80886841 -0.01008606 C4.78110253 -0.01516397 6.75334529 -0.01749412 8.72558594 -0.01733398 C11.71043664 -0.01949692 14.69490346 -0.03757722 17.6796875 -0.05664062 C36.27432529 -0.10998926 36.27432529 -0.10998926 44.8828125 2.16796875 C44.8828125 3.15796875 44.8828125 4.14796875 44.8828125 5.16796875 C45.8728125 5.49796875 46.8628125 5.82796875 47.8828125 6.16796875 C47.8828125 6.82796875 47.8828125 7.48796875 47.8828125 8.16796875 C46.8928125 8.16796875 45.9028125 8.16796875 44.8828125 8.16796875 C44.8828125 7.50796875 44.8828125 6.84796875 44.8828125 6.16796875 C33.02297137 -1.24443196 -6.64417957 2.20389577 -8.1171875 2.16796875 C-8.4471875 30.54796875 -8.7771875 58.92796875 -9.1171875 88.16796875 C-10.1071875 88.16796875 -11.0971875 88.16796875 -12.1171875 88.16796875 C-12.16359268 77.8581785 -12.19909828 67.54841324 -12.22081184 57.2385397 C-12.23123492 52.45089966 -12.24536716 47.66333124 -12.26806641 42.87573242 C-12.28984742 38.25270448 -12.30176723 33.6297453 -12.30694199 29.00667 C-12.3106283 27.24568665 -12.31782674 25.48470693 -12.32864761 23.72375298 C-12.34323247 21.25121902 -12.34516253 18.77896676 -12.34423828 16.30639648 C-12.35142883 15.58350433 -12.35861938 14.86061218 -12.36602783 14.11581421 C-12.32202884 3.18931605 -10.91318004 0.01348029 0 0 Z " fill="#EAEBEB" transform="translate(43.1171875,63.83203125)"/>
<path d="M0 0 C0 0.66 0 1.32 0 2 C0.99 2 1.98 2 3 2 C3 2.66 3 3.32 3 4 C3.99 4.33 4.98 4.66 6 5 C7.74672985 8.4934597 9 11.06845568 9 15 C6.03 15 3.06 15 0 15 C-0.33 15.66 -0.66 16.32 -1 17 C-3.1385485 14.8614515 -3.42655063 13.86724686 -4 11 C-5.98 11 -7.96 11 -10 11 C-10.99 13.31 -11.98 15.62 -13 18 C-15.97 18 -18.94 18 -22 18 C-22 17.34 -22 16.68 -22 16 C-22.66 16 -23.32 16 -24 16 C-24 15.34 -24 14.68 -24 14 C-23.34 14 -22.68 14 -22 14 C-22.0928125 12.6078125 -22.0928125 12.6078125 -22.1875 11.1875 C-22 8 -22 8 -20.5625 6.3125 C-20.046875 5.879375 -19.53125 5.44625 -19 5 C-18.67 4.01 -18.34 3.02 -18 2 C-11.97091661 -0.961655 -6.4725558 -1.31848359 0 0 Z " fill="#E0C46D" transform="translate(160,70)"/>
<path d="M0 0 C5.12279571 -0.12432113 10.2446986 -0.2146756 15.36865234 -0.2746582 C17.10871696 -0.29968233 18.84867773 -0.33371294 20.58837891 -0.37719727 C23.10084755 -0.4383892 25.6119178 -0.46632959 28.125 -0.48828125 C28.89303955 -0.51408768 29.6610791 -0.5398941 30.45239258 -0.56648254 C36.38427729 -0.56950918 40.42085705 1.22875237 45 5 C48.44813008 9.74117886 48.58889433 14.34240804 48 20 C46.83375456 24.55895944 44.30906225 27.69093775 41 31 C37.828125 31.671875 37.828125 31.671875 35 32 C40.48744453 42.00112541 46.06198475 51.92200363 51.9921875 61.66796875 C58 71.6381323 58 71.6381323 58 74 C56.68 74 55.36 74 54 74 C53.61779297 73.31599121 53.23558594 72.63198242 52.84179688 71.92724609 C51.70371061 69.89108514 50.56525079 67.85513296 49.42651367 65.81933594 C48.13948677 63.51831255 46.85319411 61.21687832 45.56762695 58.91503906 C41.49367533 51.62949343 41.49367533 51.62949343 37.32421875 44.3984375 C36.95425781 43.76502441 36.58429688 43.13161133 36.203125 42.47900391 C35.25982929 40.87313366 34.30799755 39.27228586 33.35546875 37.671875 C32.03222675 35.06352477 31.40505974 32.88276284 31 30 C31.68707031 29.78085938 32.37414062 29.56171875 33.08203125 29.3359375 C38.85724521 27.36039811 38.85724521 27.36039811 43.125 23.1875 C44.53909766 18.03614425 44.41087973 14.36959911 42.875 9.25 C40.59722551 5.30185754 39.20210072 4.64334202 35 3 C32.18319155 2.68723713 29.573291 2.51277122 26.7578125 2.48828125 C25.98944061 2.47033005 25.22106873 2.45237885 24.42941284 2.43388367 C21.99466305 2.38005042 19.5601062 2.34597308 17.125 2.3125 C15.46611914 2.27930295 13.80726365 2.24481109 12.1484375 2.20898438 C8.09909818 2.12434009 4.04981339 2.05740143 0 2 C0 1.34 0 0.68 0 0 Z " fill="#9FA2A5" transform="translate(39,81)"/>
<path d="M0 0 C7.92 0 15.84 0 24 0 C24 1.32 24 2.64 24 4 C17.4 4 10.8 4 4 4 C4 22.15 4 40.3 4 59 C7.63 59 11.26 59 15 59 C15 59.33 15 59.66 15 60 C10.05 60 5.1 60 0 60 C0 40.2 0 20.4 0 0 Z " fill="#8997B2" transform="translate(48,95)"/>
<path d="M0 0 C0.84051407 -0.00807175 1.68102814 -0.01614349 2.54701233 -0.02445984 C4.33511277 -0.03832669 6.12323997 -0.04903714 7.91137695 -0.05688477 C10.61788293 -0.07395217 13.32312035 -0.11779453 16.02929688 -0.16210938 C33.50580084 -0.3191246 33.50580084 -0.3191246 40.72265625 4.23828125 C41.38265625 4.89828125 42.04265625 5.55828125 42.72265625 6.23828125 C40.08265625 6.56828125 37.44265625 6.89828125 34.72265625 7.23828125 C34.72265625 5.91828125 34.72265625 4.59828125 34.72265625 3.23828125 C33.57667969 3.40126709 32.43070313 3.56425293 31.25 3.73217773 C26.90965022 4.27263613 22.6541003 4.36707048 18.28515625 4.3359375 C17.51961426 4.33452255 16.75407227 4.3331076 15.96533203 4.33164978 C13.55106483 4.32610978 11.13689481 4.31356904 8.72265625 4.30078125 C7.07291802 4.29575848 5.42317831 4.29119694 3.7734375 4.28710938 C-0.2435263 4.27616011 -4.26041862 4.25893791 -8.27734375 4.23828125 C-8.27734375 6.87828125 -8.27734375 9.51828125 -8.27734375 12.23828125 C3.93265625 12.23828125 16.14265625 12.23828125 28.72265625 12.23828125 C28.72265625 12.56828125 28.72265625 12.89828125 28.72265625 13.23828125 C17.17265625 13.23828125 5.62265625 13.23828125 -6.27734375 13.23828125 C-6.27734375 13.89828125 -6.27734375 14.55828125 -6.27734375 15.23828125 C5.27265625 15.23828125 16.82265625 15.23828125 28.72265625 15.23828125 C28.72265625 15.56828125 28.72265625 15.89828125 28.72265625 16.23828125 C16.51265625 16.23828125 4.30265625 16.23828125 -8.27734375 16.23828125 C-8.27734375 39.66828125 -8.27734375 63.09828125 -8.27734375 87.23828125 C-8.60734375 87.23828125 -8.93734375 87.23828125 -9.27734375 87.23828125 C-9.30046644 76.04254881 -9.31825846 64.84682201 -9.32915592 53.65107059 C-9.33438491 48.4530001 -9.34148285 43.25494589 -9.3527832 38.05688477 C-9.36361151 33.04485857 -9.36962046 28.03284807 -9.37222099 23.02081108 C-9.37407534 21.10415843 -9.37769615 19.18750668 -9.38307381 17.27086067 C-9.3902835 14.59600053 -9.39133472 11.92120611 -9.39086914 9.24633789 C-9.39446442 8.44576965 -9.39805969 7.64520142 -9.40176392 6.82037354 C-9.38691015 -1.01343547 -7.06877552 0.06394814 0 0 Z " fill="#8FA3C6" transform="translate(45.27734375,67.76171875)"/>
<path d="M0 0 C2.22293701 6.66881102 1.99841105 14.58487238 -0.75 21.0625 C-2.38690305 24.24276878 -4.20821337 26.7067467 -7 29 C-7.66 28.67 -8.32 28.34 -9 28 C-8.67 26.68 -8.34 25.36 -8 24 C-8.99 23.67 -9.98 23.34 -11 23 C-11.97159933 15.31395526 -12.10920422 7.74136601 -12 0 C-7.65795398 -1.16156645 -4.32314734 -1.44104911 0 0 Z " fill="#1466DD" transform="translate(98,88)"/>
<path d="M0 0 C0.66 0 1.32 0 2 0 C5.76848125 6.88157445 6.16467414 13.02377954 6.125 20.6875 C6.12886719 21.44611328 6.13273437 22.20472656 6.13671875 22.98632812 C6.13096158 26.2477639 6.03828751 28.88513748 5 32 C4.34 32 3.68 32 3 32 C2.566875 32.928125 2.566875 32.928125 2.125 33.875 C1 36 1 36 -1 38 C-1.02308597 40.22128555 -1.02308597 40.22128555 -0.625 42.625 C-0.51414062 43.44226563 -0.40328125 44.25953125 -0.2890625 45.1015625 C-0.19367188 45.72804687 -0.09828125 46.35453125 0 47 C1.65 47.66 3.3 48.32 5 49 C5.33 51.31 5.66 53.62 6 56 C6.66 56 7.32 56 8 56 C8 57.98 8 59.96 8 62 C8.66 62 9.32 62 10 62 C10 62.66 10 63.32 10 64 C11.32 64 12.64 64 14 64 C14.33 65.32 14.66 66.64 15 68 C13.02 68.99 13.02 68.99 11 70 C11 69.34 11 68.68 11 68 C10.34 68 9.68 68 9 68 C8.01 65.03 8.01 65.03 7 62 C6.01 62 5.02 62 4 62 C1.9322565 58.43111571 -0.09945839 54.84297846 -2.125 51.25 C-2.71410156 50.23421875 -3.30320312 49.2184375 -3.91015625 48.171875 C-4.45800781 47.1921875 -5.00585938 46.2125 -5.5703125 45.203125 C-6.08352051 44.30239258 -6.59672852 43.40166016 -7.12548828 42.47363281 C-8 40 -8 40 -7.24169922 37.81542969 C-6.83193848 37.21633789 -6.42217773 36.61724609 -6 36 C-5.525625 35.2575 -5.05125 34.515 -4.5625 33.75 C-4.046875 33.1725 -3.53125 32.595 -3 32 C-2.01 32 -1.02 32 0 32 C0 31.34 0 30.68 0 30 C0.66 29.67 1.32 29.34 2 29 C4.68450232 19.24286656 2.82363896 9.47935938 0 0 Z " fill="#DDDCE0" transform="translate(98,80)"/>
<path d="M0 0 C3.54811563 3.86863869 5.04580864 7.54339093 6.25 12.5625 C6.42273438 13.22185547 6.59546875 13.88121094 6.7734375 14.56054688 C7.60560037 17.84626931 8 20.584252 8 24 C8.66 24 9.32 24 10 24 C13.43049145 31.82684942 16 39.3840556 16 48 C16.66 48 17.32 48 18 48 C19.43336231 53.35121931 20.40984815 58.49191603 21 64 C18.59665585 61.59665585 18.02556442 59.69162775 16.8984375 56.48828125 C16.29213501 54.77886353 16.29213501 54.77886353 15.67358398 53.03491211 C15.24505127 51.80651611 14.81651855 50.57812012 14.375 49.3125 C13.93007618 48.04489535 13.48484219 46.77739953 13.03930664 45.51000977 C12.35865395 43.57253361 11.67882664 41.6347894 11.00166321 39.6960907 C9.56615586 35.58976231 8.09442006 31.49842007 6.59765625 27.4140625 C5.87752947 25.421902 5.15747331 23.42971597 4.4375 21.4375 C4.10347168 20.54264893 3.76944336 19.64779785 3.42529297 18.72583008 C1.20119152 12.49121673 0.31710599 6.60545216 0 0 Z " fill="#CEC4C0" transform="translate(170,80)"/>
<path d="M0 0 C2.89708794 3.38984777 4.22124076 6.87507496 5.6875 11.0625 C6.12449219 12.29097656 6.56148437 13.51945312 7.01171875 14.78515625 C8 18 8 18 8 21 C3.38 21 -1.24 21 -6 21 C-2.75 5.5 -2.75 5.5 0 0 Z " fill="#CCCFCF" transform="translate(152,110)"/>
<path d="M0 0 C1.18414294 3.55242882 0.69535532 4.69830562 -0.4375 8.1875 C-0.86869141 9.53908203 -0.86869141 9.53908203 -1.30859375 10.91796875 C-1.65083984 11.94857422 -1.65083984 11.94857422 -2 13 C-2.66 13 -3.32 13 -4 13 C-3.938125 14.093125 -3.87625 15.18625 -3.8125 16.3125 C-3.78296371 21.79640423 -5.39424878 26.80042462 -7 32 C-7.99 32 -8.98 32 -10 32 C-9.6596875 32.7734375 -9.6596875 32.7734375 -9.3125 33.5625 C-8.93012223 36.54504664 -9.83755012 38.31318228 -11.09765625 40.984375 C-12.69316183 44.5483615 -13.81199248 48.2843169 -15 52 C-15.66 52 -16.32 52 -17 52 C-17 54.64 -17 57.28 -17 60 C-18.485 60.495 -18.485 60.495 -20 61 C-19.01 56.71 -18.02 52.42 -17 48 C-16.34 48 -15.68 48 -15 48 C-14.896875 46.948125 -14.79375 45.89625 -14.6875 44.8125 C-12.7897351 29.68460265 -12.7897351 29.68460265 -9 24 C-8.34 24 -7.68 24 -7 24 C-7 21.36 -7 18.72 -7 16 C-6.34 16 -5.68 16 -5 16 C-5 13.36 -5 10.72 -5 8 C-4.34 8 -3.68 8 -3 8 C-2.87625 7.236875 -2.7525 6.47375 -2.625 5.6875 C-2 3 -2 3 0 0 Z " fill="#E3E4E2" transform="translate(133,80)"/>
<path d="M0 0 C5.37104009 -0.09964824 10.74152986 -0.17183292 16.11328125 -0.21972656 C17.93661892 -0.23971364 19.75989356 -0.26691286 21.58300781 -0.30175781 C41.62211173 -0.67488461 41.62211173 -0.67488461 49 4 C49.66 4.66 50.32 5.32 51 6 C48.36 6.33 45.72 6.66 43 7 C43 5.68 43 4.36 43 3 C41.85402344 3.16298584 40.70804688 3.32597168 39.52734375 3.49389648 C35.18699397 4.03435488 30.93144405 4.12878923 26.5625 4.09765625 C25.79695801 4.0962413 25.03141602 4.09482635 24.24267578 4.09336853 C21.82840858 4.08782853 19.41423856 4.07528779 17 4.0625 C15.35026177 4.05747723 13.70052206 4.05291569 12.05078125 4.04882812 C8.03381745 4.03787886 4.01692513 4.02065666 0 4 C0 2.68 0 1.36 0 0 Z " fill="#97B7DE" transform="translate(37,68)"/>
<path d="M0 0 C2.60604339 2.60604339 3.90249755 4.36456094 5.59375 7.52734375 C6.06683594 8.40197266 6.53992188 9.27660156 7.02734375 10.17773438 C7.51332031 11.08845703 7.99929687 11.99917969 8.5 12.9375 C9.46585671 14.73983473 10.4345124 16.54067291 11.40625 18.33984375 C11.83228516 19.13769287 12.25832031 19.93554199 12.69726562 20.75756836 C13.95651578 23.04723131 13.95651578 23.04723131 15.66210938 25.10375977 C17 27 17 27 17 30 C13.5511936 28.61470538 12.35649967 27.38628495 10.875 24 C9.7329698 21.43279162 9.01800698 20.01800698 7 18 C7 17.01 7 16.02 7 15 C5.68 14.67 4.36 14.34 3 14 C2.95101562 14.90363281 2.90203125 15.80726563 2.8515625 16.73828125 C2.77679688 17.91777344 2.70203125 19.09726563 2.625 20.3125 C2.52058594 22.07013672 2.52058594 22.07013672 2.4140625 23.86328125 C2 27 2 27 0 30 C0 20.1 0 10.2 0 0 Z " fill="#C3C5CB" transform="translate(63,125)"/>
<path d="M0 0 C1.010625 0.309375 2.02125 0.61875 3.0625 0.9375 C6.6731369 1.97647919 10.26874647 2.54311181 14 3 C16.09230769 7.43076923 16.09230769 7.43076923 15.625 10.3125 C15.315625 11.1478125 15.315625 11.1478125 15 12 C14.29875 11.814375 13.5975 11.62875 12.875 11.4375 C9.96068902 10.80491109 9.96068902 10.80491109 7 11.75 C5.515 11.87375 5.515 11.87375 4 12 C1.375 9.75 1.375 9.75 -1 7 C-2.31175986 5.97186389 -3.6369893 4.95915568 -5 4 C-4.360625 3.71125 -3.72125 3.4225 -3.0625 3.125 C-0.84793921 2.17176549 -0.84793921 2.17176549 0 0 Z " fill="#6298E8" transform="translate(81,77)"/>
<path d="M0 0 C2.0837194 2.0837194 2.55757486 3.15907834 3.47265625 5.88671875 C3.73240234 6.66080078 3.99214844 7.43488281 4.25976562 8.23242188 C4.52466797 9.04259766 4.78957031 9.85277344 5.0625 10.6875 C5.33126953 11.47833984 5.60003906 12.26917969 5.87695312 13.08398438 C6.13541016 13.86451172 6.39386719 14.64503906 6.66015625 15.44921875 C6.89355713 16.15393311 7.12695801 16.85864746 7.36743164 17.5847168 C8.17443982 20.66604907 8.54953644 23.8467551 9 27 C-7.5 27 -24 27 -41 27 C-41 26.67 -41 26.34 -41 26 C-26.81 25.67 -12.62 25.34 2 25 C2 23.68 2 22.36 2 21 C2.04125 19.783125 2.0825 18.56625 2.125 17.3125 C2.13966481 13.38966279 1.41822233 9.86480287 0.4375 6.078125 C0 4 0 4 0 0 Z " fill="#C59A26" transform="translate(184,128)"/>
<path d="M0 0 C5.70309939 8.55464909 7.9981918 19.04506192 10 29 C10.34804687 30.299375 10.34804687 30.299375 10.703125 31.625 C11 34 11 34 9 38 C-7.83 38 -24.66 38 -42 38 C-42 37.67 -42 37.34 -42 37 C-25.5 36.67 -9 36.34 8 36 C6.53582555 29.06504242 6.53582555 29.06504242 4.4375 22.5625 C2.76225948 17.77368115 2.3052566 13.04199694 2 8 C1.34 8 0.68 8 0 8 C0 5.36 0 2.72 0 0 Z " fill="#E4E2E2" transform="translate(186,120)"/>
<path d="M0 0 C5.48092694 -0.07420027 10.96156099 -0.1286258 16.44287109 -0.16479492 C18.30718072 -0.17987414 20.17145492 -0.20034061 22.03564453 -0.22631836 C24.71656033 -0.26273996 27.3970068 -0.2797349 30.078125 -0.29296875 C30.91055725 -0.30845261 31.7429895 -0.32393646 32.60064697 -0.33988953 C38.42460278 -0.34158031 38.42460278 -0.34158031 41.55761719 1.51831055 C42.03360352 2.00726807 42.50958984 2.49622559 43 3 C39.56395235 4.71802382 35.61561104 4.1196618 31.8359375 4.09765625 C30.92872955 4.0962413 30.02152161 4.09482635 29.08682251 4.09336853 C26.18284845 4.08776096 23.27895085 4.07520718 20.375 4.0625 C18.40885528 4.05748598 16.44270935 4.0529229 14.4765625 4.04882812 C9.6510121 4.03778906 4.82551903 4.02051935 0 4 C0 2.68 0 1.36 0 0 Z " fill="#4E8EE5" transform="translate(37,84)"/>
<path d="M0 0 C3.3 0 6.6 0 10 0 C10.99 3.63 11.98 7.26 13 11 C12.34 11 11.68 11 11 11 C10.34 12.32 9.68 13.64 9 15 C8.67 13.02 8.34 11.04 8 9 C7.34 9 6.68 9 6 9 C6.33 10.98 6.66 12.96 7 15 C4 11.375 4 11.375 4 8 C3.34 8 2.68 8 2 8 C1.67 8.99 1.34 9.98 1 11 C0.63743142 9.5437328 0.28520207 8.08488815 -0.0625 6.625 C-0.35833984 5.40683594 -0.35833984 5.40683594 -0.66015625 4.1640625 C-1 2 -1 2 0 0 Z " fill="#CFA61D" transform="translate(160,85)"/>
<path d="M0 0 C0.66 0 1.32 0 2 0 C1.34158873 5.10268737 -0.85893391 9.37253459 -3 14 C-6.63 14 -10.26 14 -14 14 C-12.14285714 4.28571429 -12.14285714 4.28571429 -9 1 C-8.4465236 3.07553648 -8 4.84365964 -8 7 C-6.68 5.68 -5.36 4.36 -4 3 C-3.34 3.66 -2.68 4.32 -2 5 C-1.34 3.35 -0.68 1.7 0 0 Z " fill="#CC9906" transform="translate(126,141)"/>
<path d="M0 0 C0.6875 2.0625 0.6875 2.0625 1 4 C-0.98 4.99 -0.98 4.99 -3 6 C-3 5.34 -3 4.68 -3 4 C-13.56 3.67 -24.12 3.34 -35 3 C-35 2.01 -35 1.02 -35 0 C-30.49786378 -0.16773186 -25.99555027 -0.32827877 -21.49291992 -0.48217773 C-19.96127431 -0.53554122 -18.42969573 -0.59086614 -16.89819336 -0.64819336 C-14.69659883 -0.73026252 -12.49485949 -0.80527067 -10.29296875 -0.87890625 C-9.26625313 -0.91945885 -9.26625313 -0.91945885 -8.21879578 -0.96083069 C-5.1530145 -1.05703182 -2.94080618 -0.98026873 0 0 Z " fill="#2A75E0" transform="translate(83,92)"/>
<path d="M0 0 C0.66 0 1.32 0 2 0 C2 0.66 2 1.32 2 2 C4.31 2 6.62 2 9 2 C9.33 1.34 9.66 0.68 10 0 C9.48594831 4.96916636 8.76615118 9.29026351 7 14 C6.01 13.34 5.02 12.68 4 12 C4 11.34 4 10.68 4 10 C3.34 10 2.68 10 2 10 C2.33 11.32 2.66 12.64 3 14 C1.35 14.33 -0.3 14.66 -2 15 C-3.38766322 8.94474232 -2.49118146 5.67989374 0 0 Z " fill="#CFA117" transform="translate(136,86)"/>
<path d="M0 0 C0.66 0 1.32 0 2 0 C5.76848125 6.88157445 6.16467414 13.02377954 6.125 20.6875 C6.12886719 21.44611328 6.13273437 22.20472656 6.13671875 22.98632812 C6.13096158 26.2477639 6.03828751 28.88513748 5 32 C4.34 32 3.68 32 3 32 C2.71125 32.61875 2.4225 33.2375 2.125 33.875 C1 36 1 36 -1 38 C-1.24287489 40.44012949 -1.24287489 40.44012949 -1.125 43.125 C-1.10695313 44.03507812 -1.08890625 44.94515625 -1.0703125 45.8828125 C-1.04710938 46.58148438 -1.02390625 47.28015625 -1 48 C-3.1875 46.1875 -3.1875 46.1875 -5 43 C-4.44694269 39.1769242 -3.2972817 35.63111691 -2 32 C-1.34 32 -0.68 32 0 32 C0 31.34 0 30.68 0 30 C0.66 29.67 1.32 29.34 2 29 C4.68450232 19.24286656 2.82363896 9.47935938 0 0 Z " fill="#EAECEC" transform="translate(98,80)"/>
<path d="M0 0 C0.99 0.33 1.98 0.66 3 1 C2.96619716 2.3551867 2.89607611 3.70947057 2.8125 5.0625 C2.77769531 5.81660156 2.74289063 6.57070312 2.70703125 7.34765625 C1.61408105 11.4477291 0.5592073 14.47235883 -3 17 C-7.87842726 17.90994366 -12.69053095 17.70252529 -17.625 17.5 C-18.9739004 17.47343664 -20.32286552 17.44996844 -21.671875 17.4296875 C-31.35658482 17.21447173 -31.35658482 17.21447173 -35 16 C-35 14.35 -35 12.7 -35 11 C-34.01 11.495 -34.01 11.495 -33 12 C-33 12.66 -33 13.32 -33 14 C-29.06734104 14.04947698 -25.13480286 14.08575578 -21.2019043 14.10986328 C-19.20680382 14.12485495 -17.21179054 14.15026731 -15.21679688 14.17578125 C-13.96318359 14.18222656 -12.70957031 14.18867188 -11.41796875 14.1953125 C-10.26063232 14.20578613 -9.1032959 14.21625977 -7.91088867 14.22705078 C-4.80578827 14.22319863 -4.80578827 14.22319863 -2 12 C-1.45459417 9.64105036 -1.45459417 9.64105036 -1.375 7 C-1.0794702 2.1589404 -1.0794702 2.1589404 0 0 Z " fill="#EEECEE" transform="translate(67,143)"/>
<path d="M0 0 C1.14077657 3.42232972 1.09815117 6.08673217 1.0625 9.6875 C1.05347656 10.86699219 1.04445313 12.04648438 1.03515625 13.26171875 C1.02355469 14.16535156 1.01195313 15.06898437 1 16 C-1.62386487 12.93882432 -2 12.26826873 -2 8 C-7.01535052 8.32960216 -7.01535052 8.32960216 -11 11 C-11.33 7.37 -11.66 3.74 -12 0 C-7.44028292 -1.13992927 -4.45953531 -1.48651177 0 0 Z " fill="#3B7EDF" transform="translate(98,88)"/>
<path d="M0 0 C1.32 0.33 2.64 0.66 4 1 C5.484375 3.65234375 5.484375 3.65234375 6.75 6.9375 C7.17796875 8.01902344 7.6059375 9.10054687 8.046875 10.21484375 C9 13 9 13 9 15 C8.34 15 7.68 15 7 15 C6.34 14.34 5.68 13.68 5 13 C4.01 14.485 4.01 14.485 3 16 C2.67 15.67 2.34 15.34 2 15 C1.01 16.485 1.01 16.485 0 18 C-0.33 16.35 -0.66 14.7 -1 13 C-1.99 12.67 -2.98 12.34 -4 12 C-2.68 8.04 -1.36 4.08 0 0 Z " fill="#D0A524" transform="translate(151,83)"/>
<path d="M0 0 C1.55078125 1.20703125 1.55078125 1.20703125 3 3 C2.85546875 5.26171875 2.85546875 5.26171875 2.1875 7.6875 C1.97480469 8.49574219 1.76210937 9.30398437 1.54296875 10.13671875 C1.36378906 10.75160156 1.18460938 11.36648437 1 12 C1.66 12 2.32 12 3 12 C3.0825 11.236875 3.165 10.47375 3.25 9.6875 C4.15269355 6.45284809 5.13593461 5.64900735 8 4 C8.66 4 9.32 4 10 4 C9.5247412 5.64696604 9.04468109 7.29254728 8.5625 8.9375 C8.29566406 9.85402344 8.02882812 10.77054688 7.75390625 11.71484375 C7 14 7 14 6 15 C4.31391034 15.07205511 2.62499341 15.08386068 0.9375 15.0625 C0.01839844 15.05347656 -0.90070313 15.04445312 -1.84765625 15.03515625 C-2.55792969 15.02355469 -3.26820312 15.01195312 -4 15 C-2.9318153 9.88634986 -1.76892524 4.92772031 0 0 Z " fill="#C99B16" transform="translate(131,140)"/>
<path d="M0 0 C1.43367789 0.04233077 2.86719443 0.0903537 4.30053711 0.14282227 C5.43041298 0.17823875 5.43041298 0.17823875 6.58311462 0.21437073 C8.99822015 0.2911835 11.41301906 0.37513123 13.82788086 0.45922852 C15.4613292 0.51243161 17.09479268 0.56517211 18.72827148 0.61743164 C22.74083687 0.74682227 26.7531413 0.88261399 30.76538086 1.02172852 C30.43538086 1.68172852 30.10538086 2.34172852 29.76538086 3.02172852 C19.20538086 3.02172852 8.64538086 3.02172852 -2.23461914 3.02172852 C-2.23461914 6.32172852 -2.23461914 9.62172852 -2.23461914 13.02172852 C-2.56461914 12.36172852 -2.89461914 11.70172852 -3.23461914 11.02172852 C-4.55461914 11.02172852 -5.87461914 11.02172852 -7.23461914 11.02172852 C-6.75936034 9.37476248 -6.27930023 7.72918124 -5.79711914 6.08422852 C-5.5302832 5.16770508 -5.26344727 4.25118164 -4.98852539 3.30688477 C-3.83813059 -0.1800632 -3.87412634 0.0260244 0 0 Z " fill="#A2A1A8" transform="translate(145.234619140625,140.978271484375)"/>
<path d="M0 0 C-0.60538788 3.35951302 -1.43324081 6.44884363 -2.62890625 9.64453125 C-2.94150391 10.48564453 -3.25410156 11.32675781 -3.57617188 12.19335938 C-3.90166016 13.05767578 -4.22714844 13.92199219 -4.5625 14.8125 C-4.89185547 15.69615234 -5.22121094 16.57980469 -5.56054688 17.49023438 C-6.37034601 19.66143495 -7.18358893 21.83127889 -8 24 C-8.99 24 -9.98 24 -11 24 C-12.00508801 22.21118264 -13.00392736 20.41885304 -14 18.625 C-14.8353125 17.12839844 -14.8353125 17.12839844 -15.6875 15.6015625 C-17 13 -17 13 -17 11 C-16.34 11 -15.68 11 -15 11 C-13 14 -13 14 -13 17 C-12.01 17.33 -11.02 17.66 -10 18 C-8.00902154 15.01353231 -7.05875074 12.40312738 -6 9 C-5.34 9 -4.68 9 -4 9 C-4 6.36 -4 3.72 -4 1 C-2 0 -2 0 0 0 Z " fill="#CCC2B4" transform="translate(120,131)"/>
<path d="M0 0 C-0.66 2.64 -1.32 5.28 -2 8 C-4.97 8 -7.94 8 -11 8 C-11 7.34 -11 6.68 -11 6 C-11.66 6 -12.32 6 -13 6 C-13 5.34 -13 4.68 -13 4 C-12.34 4 -11.68 4 -11 4 C-11 2.68 -11 1.36 -11 0 C-7.01803543 -1.05404945 -4.01804691 -0.84098656 0 0 Z " fill="#DAB445" transform="translate(149,80)"/>
<path d="M0 0 C2.62527189 -0.05382106 5.24944713 -0.09358313 7.875 -0.125 C8.62136719 -0.14175781 9.36773437 -0.15851562 10.13671875 -0.17578125 C12.09194461 -0.1933959 14.04742021 -0.10320189 16 0 C16.66 0.66 17.32 1.32 18 2 C17.07058594 2.06058594 16.14117187 2.12117188 15.18359375 2.18359375 C6.05853115 2.79571552 6.05853115 2.79571552 -3 4 C-3.33 5.32 -3.66 6.64 -4 8 C-4.66 8 -5.32 8 -6 8 C-6.144375 8.5775 -6.28875 9.155 -6.4375 9.75 C-6.95833333 11.83333333 -7.47916667 13.91666667 -8 16 C-8.66 16 -9.32 16 -10 16 C-10.17942163 12.05272412 -10.09350689 9.4019487 -8 6 C-7.34 6 -6.68 6 -6 6 C-5.67 5.01 -5.34 4.02 -5 3 C-3.35 2.67 -1.7 2.34 0 2 C0 1.34 0 0.68 0 0 Z " fill="#EBEBEA" transform="translate(144,64)"/>
<path d="M0 0 C0.6703125 0.37125 1.340625 0.7425 2.03125 1.125 C2.5159375 1.41375 3.000625 1.7025 3.5 2 C3.5 2.33 3.5 2.66 3.5 3 C0.86 3.33 -1.78 3.66 -4.5 4 C-4.5 2.68 -4.5 1.36 -4.5 0 C-6.2325 0.24447876 -6.2325 0.24447876 -8 0.49389648 C-12.17170377 1.01346927 -16.29939706 1.12951385 -20.5 1.09765625 C-21.2211499 1.0962413 -21.9422998 1.09482635 -22.68530273 1.09336853 C-24.95691324 1.08783381 -27.22842 1.07529423 -29.5 1.0625 C-31.05338398 1.05747654 -32.60676952 1.05291512 -34.16015625 1.04882812 C-37.94014328 1.03788589 -41.72005414 1.0206676 -45.5 1 C-45.5 0.34 -45.5 -0.32 -45.5 -1 C-40.9468259 -1.14401022 -36.39360399 -1.28636397 -31.84033203 -1.42724609 C-30.2944197 -1.47530387 -28.74852087 -1.52379817 -27.20263672 -1.57275391 C-24.96845942 -1.64342833 -22.73423674 -1.71248313 -20.5 -1.78125 C-19.47918335 -1.81406067 -19.47918335 -1.81406067 -18.43774414 -1.84753418 C-3.99954765 -2.2854558 -3.99954765 -2.2854558 0 0 Z " fill="#8CB2EE" transform="translate(84.5,71)"/>
<path d="M0 0 C6.03230491 -0.02474909 12.06458015 -0.04288334 18.09692383 -0.05493164 C20.14836136 -0.0599553 22.19979532 -0.06677537 24.2512207 -0.07543945 C27.2026457 -0.08759112 30.15402327 -0.09324804 33.10546875 -0.09765625 C34.02023483 -0.10281754 34.93500092 -0.10797882 35.87748718 -0.11329651 C40.04884192 -0.11366265 43.93379308 -0.06733315 48 1 C48 1.99 48 2.98 48 4 C48.99 4.33 49.98 4.66 51 5 C51 5.66 51 6.32 51 7 C50.01 7 49.02 7 48 7 C48 6.34 48 5.68 48 5 C42.10036223 1.3127264 34.10762404 1.83508985 27.34375 1.68359375 C26.16214294 1.6524221 26.16214294 1.6524221 24.95666504 1.62062073 C22.47118794 1.55589026 19.98561667 1.49660094 17.5 1.4375 C15.80207408 1.39424177 14.10415725 1.35062532 12.40625 1.30664062 C8.27092675 1.20028887 4.13550999 1.09881251 0 1 C0 0.67 0 0.34 0 0 Z " fill="#E0DCDB" transform="translate(40,65)"/>
<path d="M0 0 C1 2 1 2 0.44921875 3.8125 C0.19785156 4.534375 -0.05351563 5.25625 -0.3125 6 C-1.39240085 10.39064951 -0.61599636 12.52454775 1.6875 16.375 C3.22676471 18.68940755 4.66783585 20.68850044 6.6953125 22.58984375 C8 24 8 24 8.1875 27.1875 C8.125625 28.115625 8.06375 29.04375 8 30 C4.82162151 25.87870062 2.26475602 21.51290146 -0.3125 17 C-1.03276367 15.78957031 -1.03276367 15.78957031 -1.76757812 14.5546875 C-2.21166016 13.77351563 -2.65574219 12.99234375 -3.11328125 12.1875 C-3.72876831 11.12595703 -3.72876831 11.12595703 -4.35668945 10.04296875 C-5 8 -5 8 -4.21948242 5.87890625 C-2.89875377 3.84400581 -1.49869642 1.90743181 0 0 Z " fill="#B3BFBF" transform="translate(95,112)"/>
<path d="M0 0 C0.33 0.99 0.66 1.98 1 3 C1.99 3 2.98 3 4 3 C4 2.34 4 1.68 4 1 C4.66 1 5.32 1 6 1 C6 1.66 6 2.32 6 3 C6.66 3 7.32 3 8 3 C8.33 4.65 8.66 6.3 9 8 C6.03 8 3.06 8 0 8 C-0.33 8.66 -0.66 9.32 -1 10 C-3.35953094 7.64046906 -3.49141413 6.22104383 -4 3 C-2.68 3 -1.36 3 0 3 C0 2.01 0 1.02 0 0 Z " fill="#DABA52" transform="translate(160,77)"/>
<path d="M0 0 C0.66 0 1.32 0 2 0 C2 0.99 2 1.98 2 3 C2.66 3 3.32 3 4 3 C4.33 5.64 4.66 8.28 5 11 C5.66 11 6.32 11 7 11 C8.43336231 16.35121931 9.40984815 21.49191603 10 27 C7.73240565 24.73240565 7.14535312 23.09441567 6.0546875 20.09765625 C5.70019531 19.12505859 5.34570312 18.15246094 4.98046875 17.15039062 C4.61566406 16.13138672 4.25085938 15.11238281 3.875 14.0625 C3.50246094 13.04736328 3.12992188 12.03222656 2.74609375 10.98632812 C0 3.38679029 0 3.38679029 0 0 Z " fill="#CDC6C6" transform="translate(181,117)"/>
<path d="M0 0 C3.37641082 3.37641082 4.27450305 5.64517436 6 10 C4.35 10 2.7 10 1 10 C1 16.6 1 23.2 1 30 C0.67 30 0.34 30 0 30 C0 20.1 0 10.2 0 0 Z " fill="#8FA0CB" transform="translate(63,125)"/>
<path d="M0 0 C1.32 0 2.64 0 4 0 C3.43500879 3.38994728 2.52565402 5.94869196 1 9 C0.43188703 10.57403776 -0.10988621 12.1578301 -0.625 13.75 C-0.88539062 14.54921875 -1.14578125 15.3484375 -1.4140625 16.171875 C-1.60742188 16.77515625 -1.80078125 17.3784375 -2 18 C-2.66 18 -3.32 18 -4 18 C-4 20.64 -4 23.28 -4 26 C-4.99 26.33 -5.98 26.66 -7 27 C-6.01 22.71 -5.02 18.42 -4 14 C-3.34 14 -2.68 14 -2 14 C-1.7834375 12.205625 -1.7834375 12.205625 -1.5625 10.375 C-1.12960657 6.8994842 -0.60383744 3.45049966 0 0 Z " fill="#DDDFDF" transform="translate(120,114)"/>
<path d="M0 0 C0.66 0 1.32 0 2 0 C2 0.66 2 1.32 2 2 C4.31 2 6.62 2 9 2 C9.33 1.34 9.66 0.68 10 0 C9.67 2.64 9.34 5.28 9 8 C8.67 7.34 8.34 6.68 8 6 C3.545 6.495 3.545 6.495 -1 7 C-2 4 -2 4 -1.0625 1.8125 C-0.5365625 0.9153125 -0.5365625 0.9153125 0 0 Z " fill="#D4AC2C" transform="translate(136,86)"/>
<path d="M0 0 C3.3 0 6.6 0 10 0 C9 4 9 4 7 6 C7 5.01 7 4.02 7 3 C6.34 3 5.68 3 5 3 C5 3.99 5 4.98 5 6 C4.34 6 3.68 6 3 6 C3 5.01 3 4.02 3 3 C2.34 3 1.68 3 1 3 C1.33 5.64 1.66 8.28 2 11 C-0.7865517 8.2134483 -0.65662895 5.84575573 -1 2 C-0.67 1.34 -0.34 0.68 0 0 Z " fill="#D1AE3E" transform="translate(160,85)"/>
<path d="M0 0 C1.32 0.33 2.64 0.66 4 1 C4.33 2.32 4.66 3.64 5 5 C3.68 4.67 2.36 4.34 1 4 C0.97421875 4.83144531 0.9484375 5.66289062 0.921875 6.51953125 C0.86515625 7.60621094 0.8084375 8.69289062 0.75 9.8125 C0.68039063 11.43091797 0.68039063 11.43091797 0.609375 13.08203125 C0 16 0 16 -1.84375 17.875 C-4.66549439 19.34721447 -6.86491773 19.21375561 -10 19 C-10 18.34 -10 17.68 -10 17 C-6.535 16.505 -6.535 16.505 -3 16 C-1.7247436 12.17423079 -1.57916878 8.50203731 -1.28125 4.49609375 C-1 2 -1 2 0 0 Z " fill="#D8DADB" transform="translate(66,139)"/>
<path d="M0 0 C2.83374881 3.20336822 3.5205537 5.78087253 4 10 C2.02 10 0.04 10 -2 10 C-2 11.32 -2 12.64 -2 14 C-2.66 14 -3.32 14 -4 14 C-3.00956295 9.16371695 -2.04301154 4.52381127 0 0 Z " fill="#C0B7AC" transform="translate(152,110)"/>
<path d="M0 0 C0.66 0 1.32 0 2 0 C2.66 0.99 3.32 1.98 4 3 C5.32 3 6.64 3 8 3 C7.67 4.32 7.34 5.64 7 7 C6.29875 6.814375 5.5975 6.62875 4.875 6.4375 C1.66111302 5.94843024 -0.83560336 6.33768442 -4 7 C-4.33 5.35 -4.66 3.7 -5 2 C-3.68 2 -2.36 2 -1 2 C-0.67 1.34 -0.34 0.68 0 0 Z " fill="#4E8CE2" transform="translate(89,82)"/>
<path d="M0 0 C5 1 5 1 6.58203125 2.99609375 C6.98808594 3.80175781 7.39414063 4.60742188 7.8125 5.4375 C8.23144531 6.24058594 8.65039062 7.04367188 9.08203125 7.87109375 C10 10 10 10 10 12 C8.68 12 7.36 12 6 12 C4.02 8.04 2.04 4.08 0 0 Z " fill="#99A3A5" transform="translate(87,143)"/>
<path d="M0 0 C0.66 0 1.32 0 2 0 C2.268125 1.093125 2.53625 2.18625 2.8125 3.3125 C3.64975389 6.91011936 3.64975389 6.91011936 5.625 8.5625 C7 10 7 10 7.1875 13.1875 C7.125625 14.115625 7.06375 15.04375 7 16 C7.66 16.33 8.32 16.66 9 17 C9 19.31 9 21.62 9 24 C8.67 24 8.34 24 8 24 C7.75765625 23.154375 7.5153125 22.30875 7.265625 21.4375 C5.0018937 13.7142946 5.0018937 13.7142946 1.75 6.375 C0 3 0 3 0 0 Z " fill="#EDEAEC" transform="translate(168,72)"/>
<path d="M0 0 C2.40575607 2.18517099 3.79535581 4.25919671 5.1875 7.1875 C5.53167969 7.90292969 5.87585938 8.61835938 6.23046875 9.35546875 C6.48441406 9.89816406 6.73835938 10.44085938 7 11 C6.01 11 5.02 11 4 11 C2.3125 9 2.3125 9 1 7 C0.67 7.66 0.34 8.32 0 9 C-0.66 9 -1.32 9 -2 9 C-1.125 2.25 -1.125 2.25 0 0 Z " fill="#1765DA" transform="translate(82,136)"/>
<path d="M0 0 C3.12259437 3.12259437 3.14293342 6.71466712 4 11 C-0.62 11 -5.24 11 -10 11 C-9.67 9.02 -9.34 7.04 -9 5 C-7 7 -7 7 -7 10 C-4.36 10 -1.72 10 1 10 C0.67 6.7 0.34 3.4 0 0 Z " fill="#BCAE98" transform="translate(156,120)"/>
<path d="M0 0 C0.66 0 1.32 0 2 0 C4 3 4 3 4 6 C6.97 6.495 6.97 6.495 10 7 C9.67 8.98 9.34 10.96 9 13 C8.01 13 7.02 13 6 13 C4.99491199 11.21118264 3.99607264 9.41885304 3 7.625 C2.1646875 6.12839844 2.1646875 6.12839844 1.3125 4.6015625 C0 2 0 2 0 0 Z " fill="#B3B8BA" transform="translate(103,142)"/>
<path d="M0 0 C2.475 0.99 2.475 0.99 5 2 C5.33 4.31 5.66 6.62 6 9 C6.66 9 7.32 9 8 9 C7.67 9.99 7.34 10.98 7 12 C5.5 10.625 5.5 10.625 4 9 C4 8.34 4 7.68 4 7 C3.01 6.67 2.02 6.34 1 6 C-0.1875 3.4375 -0.1875 3.4375 -1 1 C-0.67 0.67 -0.34 0.34 0 0 Z " fill="#ECEAEB" transform="translate(98,127)"/>
<path d="M0 0 C0.99 0 1.98 0 3 0 C3 0.66 3 1.32 3 2 C2.01 2.495 2.01 2.495 1 3 C0.67 3.825 0.34 4.65 0 5.5 C-1 8 -1 8 -3 9 C-3.165 9.99 -3.33 10.98 -3.5 12 C-3.665 12.99 -3.83 13.98 -4 15 C-4.99 15.495 -4.99 15.495 -6 16 C-7.13350534 18.01669827 -7.13350534 18.01669827 -8 20 C-7.67 17.36 -7.34 14.72 -7 12 C-6.34 12 -5.68 12 -5 12 C-4.7834375 10.8553125 -4.7834375 10.8553125 -4.5625 9.6875 C-4 7 -4 7 -3 4 C-2.34 4 -1.68 4 -1 4 C-0.67 2.68 -0.34 1.36 0 0 Z " fill="#D5D5D3" transform="translate(141,68)"/>
<path d="M0 0 C0.33 0.66 0.66 1.32 1 2 C2.299375 1.979375 3.59875 1.95875 4.9375 1.9375 C6.29165633 1.91600546 7.64756083 1.92851801 9 2 C10 3 10 3 10.0625 6.0625 C10.041875 7.031875 10.02125 8.00125 10 9 C9.67 7.68 9.34 6.36 9 5 C3.98464948 5.32960216 3.98464948 5.32960216 0 8 C0 5.36 0 2.72 0 0 Z " fill="#2873DF" transform="translate(87,91)"/>
<path d="M0 0 C1.18414294 3.55242882 0.69535532 4.69830562 -0.4375 8.1875 C-0.72496094 9.08855469 -1.01242188 9.98960938 -1.30859375 10.91796875 C-1.53675781 11.60503906 -1.76492187 12.29210937 -2 13 C-2.66 13 -3.32 13 -4 13 C-4.33 13.99 -4.66 14.98 -5 16 C-5 13.36 -5 10.72 -5 8 C-4.34 8 -3.68 8 -3 8 C-2.87625 7.236875 -2.7525 6.47375 -2.625 5.6875 C-2 3 -2 3 0 0 Z " fill="#ECECED" transform="translate(133,80)"/>
<path d="M0 0 C5.05768919 5.73204775 6.30373687 10.40657831 6 18 C3.52621876 15.52621876 2.96861769 13.43825655 1.875 10.125 C1.52179688 9.07570313 1.16859375 8.02640625 0.8046875 6.9453125 C0 4 0 4 0 0 Z " fill="#D6DAD9" transform="translate(170,80)"/>
<path d="M0 0 C0 0.66 0 1.32 0 2 C-0.99 2.33 -1.98 2.66 -3 3 C-3.680625 3.804375 -3.680625 3.804375 -4.375 4.625 C-4.91125 5.07875 -5.4475 5.5325 -6 6 C-8.6875 5.6875 -8.6875 5.6875 -11 5 C-10.34 4.67 -9.68 4.34 -9 4 C-9 2.68 -9 1.36 -9 0 C-5.62182575 -0.84454356 -3.32534757 -1.10844919 0 0 Z " fill="#DBB954" transform="translate(147,80)"/>
<path d="M0 0 C1.98 0.66 3.96 1.32 6 2 C6 3.32 6 4.64 6 6 C4.02 5.34 2.04 4.68 0 4 C0.33 4.99 0.66 5.98 1 7 C-0.98 6.34 -2.96 5.68 -5 5 C-3.35 3.35 -1.7 1.7 0 0 Z " fill="#6F9DE3" transform="translate(81,77)"/>
<path d="M0 0 C1.98 0 3.96 0 6 0 C6.69937202 1.4317616 7.38412718 2.87067032 8.0625 4.3125 C8.44535156 5.11300781 8.82820312 5.91351563 9.22265625 6.73828125 C10 9 10 9 9 12 C8.34 12 7.68 12 7 12 C6.01 9.03 5.02 6.06 4 3 C4.33 2.67 4.66 2.34 5 2 C3.02 2 1.04 2 -1 2 C-0.67 1.34 -0.34 0.68 0 0 Z " fill="#B3A795" transform="translate(150,80)"/>
<path d="M0 0 C0 0.33 0 0.66 0 1 C-1.65 1 -3.3 1 -5 1 C-5.99 4.3 -6.98 7.6 -8 11 C-8.33 11 -8.66 11 -9 11 C-9.125 3.375 -9.125 3.375 -8 0 C-4.71023192 -1.09658936 -3.28696233 -0.79953138 0 0 Z " fill="#A8A29A" transform="translate(156,82)"/>
<path d="M0 0 C0.66 0 1.32 0 2 0 C2.042721 1.66611905 2.04063832 3.33382885 2 5 C1.67 5.33 1.34 5.66 1 6 C0.92794489 7.68608966 0.91613932 9.37500659 0.9375 11.0625 C0.94652344 11.98160156 0.95554687 12.90070313 0.96484375 13.84765625 C0.97644531 14.55792969 0.98804687 15.26820312 1 16 C-1.1875 14.1875 -1.1875 14.1875 -3 11 C-2.44694269 7.1769242 -1.2972817 3.63111691 0 0 Z " fill="#DFDCDF" transform="translate(96,112)"/>
<path d="M0 0 C0.99 0 1.98 0 3 0 C3.33 2.64 3.66 5.28 4 8 C4.66 8 5.32 8 6 8 C6 8.66 6 9.32 6 10 C5.34 10 4.68 10 4 10 C3.87625 10.639375 3.7525 11.27875 3.625 11.9375 C3.41875 12.618125 3.2125 13.29875 3 14 C2.01 14.495 2.01 14.495 1 15 C1.09539062 14.38511719 1.19078125 13.77023438 1.2890625 13.13671875 C1.39992187 12.32847656 1.51078125 11.52023438 1.625 10.6875 C1.79902344 9.48673828 1.79902344 9.48673828 1.9765625 8.26171875 C2.21533407 5.71276785 2.21533407 5.71276785 0 3 C0 2.01 0 1.02 0 0 Z " fill="#F1F1EE" transform="translate(194,144)"/>
<path d="M0 0 C2 2.5 2 2.5 4 5 C5.11375 6.2065625 5.11375 6.2065625 6.25 7.4375 C8.36213801 10.53027351 8.34131275 12.33088799 8 16 C5.86555934 13.25214237 4.02037559 10.46859452 2.3125 7.4375 C1.65701172 6.29087891 1.65701172 6.29087891 0.98828125 5.12109375 C0 3 0 3 0 0 Z " fill="#C2CBCA" transform="translate(95,126)"/>
<path d="M0 0 C1.32 0.33 2.64 0.66 4 1 C5.125 4.75 5.125 4.75 4 7 C3.34 7 2.68 7 2 7 C2 6.34 2 5.68 2 5 C1.34 5 0.68 5 0 5 C-0.33 5.99 -0.66 6.98 -1 8 C-2.2077558 4.37673261 -1.54311128 3.35853631 0 0 Z " fill="#D4AF41" transform="translate(151,83)"/>
<path d="M0 0 C0.66 0 1.32 0 2 0 C3.35439668 2.70879335 3.06501451 5.00933268 3 8 C3.66 8 4.32 8 5 8 C5.96070434 10.88211302 6.10581883 12.69850044 6.0625 15.6875 C6.05347656 16.49574219 6.04445312 17.30398437 6.03515625 18.13671875 C6.02355469 18.75160156 6.01195312 19.36648437 6 20 C5.67 20 5.34 20 5 20 C4.83564453 19.18208984 4.83564453 19.18208984 4.66796875 18.34765625 C3.62251186 13.37536128 2.29125934 8.63437646 0.5859375 3.84765625 C0 2 0 2 0 0 Z " fill="#D4D6D8" transform="translate(189,136)"/>
<path d="M0 0 C0.66 0 1.32 0 2 0 C2 3.3 2 6.6 2 10 C1.67 9.34 1.34 8.68 1 8 C-0.32 8 -1.64 8 -3 8 C-1.125 2.25 -1.125 2.25 0 0 Z " fill="#AEA396" transform="translate(141,144)"/>
<path d="M0 0 C0.99 0.99 1.98 1.98 3 3 C3.99 2.67 4.98 2.34 6 2 C6 3.98 6 5.96 6 8 C5.01 8.495 5.01 8.495 4 9 C4 8.01 4 7.02 4 6 C3.01 6.33 2.02 6.66 1 7 C-0.0625 4.625 -0.0625 4.625 -1 2 C-0.67 1.34 -0.34 0.68 0 0 Z " fill="#0E66E0" transform="translate(67,126)"/>
<path d="M0 0 C0 0.66 0 1.32 0 2 C-7.92 2.495 -7.92 2.495 -16 3 C-16 2.34 -16 1.68 -16 1 C-10.10106757 -0.79074734 -6.06820868 -1.08360869 0 0 Z " fill="#E6CC7C" transform="translate(160,70)"/>
<path d="M0 0 C3.3 0.33 6.6 0.66 10 1 C10 1.99 10 2.98 10 4 C10.99 4.33 11.98 4.66 13 5 C13 5.66 13 6.32 13 7 C12.01 7 11.02 7 10 7 C10 6.34 10 5.68 10 5 C6.77484237 3.26337666 3.48670834 2.1094072 0 1 C0 0.67 0 0.34 0 0 Z " fill="#ECEAEE" transform="translate(78,65)"/>
<path d="M0 0 C2 4 2 4 2 7 C4.31 7.33 6.62 7.66 9 8 C9 8.33 9 8.66 9 9 C5.37 9 1.74 9 -2 9 C-1.34 6.03 -0.68 3.06 0 0 Z " fill="#C89C2B" transform="translate(114,146)"/>
<path d="M0 0 C2.46301423 2.46301423 2.76766521 4.27360036 3.625 7.625 C3.88539063 8.62789062 4.14578125 9.63078125 4.4140625 10.6640625 C4.60742188 11.43492187 4.80078125 12.20578125 5 13 C4.34 13.66 3.68 14.32 3 15 C0.5978396 10.1956792 0.38877771 5.26896105 0 0 Z " fill="#C79D23" transform="translate(184,128)"/>
<path d="M0 0 C0.99 0 1.98 0 3 0 C4.59162079 5.57067277 5.20674944 10.21101581 5 16 C4.67 16 4.34 16 4 16 C2.66666667 10.66666667 1.33333333 5.33333333 0 0 Z " fill="#EFEFEE" transform="translate(180,104)"/>
<path d="M0 0 C2.49415272 0.99766109 3.78740335 1.68616685 5.3125 3.9375 C6 6 6 6 5 9 C2.5 6.75 2.5 6.75 0 4 C0 2.68 0 1.36 0 0 Z " fill="#A1A19C" transform="translate(74,118)"/>
<path d="M0 0 C3 1 3 1 4.75 3.4375 C5.36875 4.7059375 5.36875 4.7059375 6 6 C5.67 6.66 5.34 7.32 5 8 C3.125 7.8125 3.125 7.8125 1 7 C-0.3125 4.5625 -0.3125 4.5625 -1 2 C-0.67 1.34 -0.34 0.68 0 0 Z " fill="#929FAC" transform="translate(85,136)"/>
<path d="M0 0 C0.33 0 0.66 0 1 0 C0.85904936 1.6254308 0.71207913 3.25034051 0.5625 4.875 C0.48128906 5.77992187 0.40007812 6.68484375 0.31640625 7.6171875 C0 10 0 10 -1 12 C-1.66 12 -2.32 12 -3 12 C-3 9.69 -3 7.38 -3 5 C-2.34 5 -1.68 5 -1 5 C-0.67 3.35 -0.34 1.7 0 0 Z " fill="#D1D2D4" transform="translate(132,88)"/>
<path d="M0 0 C0.99 0.99 1.98 1.98 3 3 C-0.3 3 -3.6 3 -7 3 C-7.33 2.34 -7.66 1.68 -8 1 C-5.20129973 -0.39935013 -3.09501208 -0.25265405 0 0 Z " fill="#E8EBEC" transform="translate(100,157)"/>
<path d="M0 0 C3.37331354 2.24887569 3.8358179 3.2387963 5 7 C5 8.32 5 9.64 5 11 C4.34 11 3.68 11 3 11 C3 10.01 3 9.02 3 8 C2.34 7.67 1.68 7.34 1 7 C0 6 0 6 -0.0625 2.9375 C-0.041875 1.968125 -0.02125 0.99875 0 0 Z " fill="#E7E7E7" transform="translate(71,144)"/>
<path d="M0 0 C0.99 0 1.98 0 3 0 C3.185625 1.299375 3.185625 1.299375 3.375 2.625 C3.98058121 5.89513853 4.88306035 8.87256899 6 12 C5.01 11.67 4.02 11.34 3 11 C2.05078125 9.00390625 2.05078125 9.00390625 1.3125 6.5625 C1.06113281 5.75941406 0.80976562 4.95632812 0.55078125 4.12890625 C0 2 0 2 0 0 Z " fill="#2466D8" transform="translate(88,116)"/>
<path d="M0 0 C0.99 0 1.98 0 3 0 C4.41377341 2.63904371 5.37240135 5.07120629 6 8 C4.68 7.67 3.36 7.34 2 7 C1.34 4.69 0.68 2.38 0 0 Z " fill="#AC9F85" transform="translate(173,136)"/>
<path d="M0 0 C2 1 2 1 3.125 3.6875 C3.98889074 6.9579435 4.16013991 9.63706182 4 13 C3.67 12.01 3.34 11.02 3 10 C2.34 10 1.68 10 1 10 C0.67 6.7 0.34 3.4 0 0 Z " fill="#D8DAD7" transform="translate(180,107)"/>
<path d="M0 0 C0.66 0 1.32 0 2 0 C1.27991594 4.60853797 -0.31295939 8.67237409 -2 13 C-3.18771723 9.57056481 -2.80226223 7.62215325 -1.5625 4.25 C-1.27503906 3.45078125 -0.98757812 2.6515625 -0.69140625 1.828125 C-0.46324219 1.22484375 -0.23507813 0.6215625 0 0 Z " fill="#C39C1A" transform="translate(126,141)"/>
<path d="M0 0 C0.66 0 1.32 0 2 0 C2.99 2.31 3.98 4.62 5 7 C3.35 7 1.7 7 0 7 C0 4.69 0 2.38 0 0 Z " fill="#A6ACB0" transform="translate(64,128)"/>
<path d="M0 0 C2.72426311 2.35277269 3.8141763 4.62496331 5 8 C3.68 8 2.36 8 1 8 C0.40267181 5.23735711 0 2.83967231 0 0 Z " fill="#A9ACB6" transform="translate(92,147)"/>
<path d="M0 0 C0.66 0.66 1.32 1.32 2 2 C3.31747324 2.69748583 4.64914193 3.36959957 6 4 C5.34 5.65 4.68 7.3 4 9 C1.74754119 6.31158141 0.11786042 4.35358125 -1 1 C-0.67 0.67 -0.34 0.34 0 0 Z " fill="#1766D3" transform="translate(86,132)"/>
<path d="M0 0 C0.66 0.33 1.32 0.66 2 1 C2.4140625 3.06640625 2.4140625 3.06640625 2.625 5.5625 C2.69976562 6.38878906 2.77453125 7.21507812 2.8515625 8.06640625 C2.90054688 8.70449219 2.94953125 9.34257812 3 10 C2.34 10 1.68 10 1 10 C1 8.35 1 6.7 1 5 C0.34 5 -0.32 5 -1 5 C-1.33 5.66 -1.66 6.32 -2 7 C-2 5.68 -2 4.36 -2 3 C-1.34 3 -0.68 3 0 3 C0 2.01 0 1.02 0 0 Z " fill="#0F6AD3" transform="translate(89,123)"/>
<path d="M0 0 C1.12377697 3.30435084 0.89554742 5.0506862 -0.4375 8.25 C-0.72496094 8.95640625 -1.01242188 9.6628125 -1.30859375 10.390625 C-1.53675781 10.92171875 -1.76492187 11.4528125 -2 12 C-2.33 12 -2.66 12 -3 12 C-3.2954439 6.97745369 -2.98514628 4.10457614 0 0 Z " fill="#EFEEED" transform="translate(124,104)"/>
<path d="M0 0 C0.99 0 1.98 0 3 0 C2.67 2.64 2.34 5.28 2 8 C0.4375 6.8125 0.4375 6.8125 -1 5 C-0.6875 2.3125 -0.6875 2.3125 0 0 Z " fill="#1E72D9" transform="translate(81,96)"/>
<path d="M0 0 C0.33 0 0.66 0 1 0 C1 3.63 1 7.26 1 11 C1.66 11 2.32 11 3 11 C3 11.99 3 12.98 3 14 C2.01 14.33 1.02 14.66 0 15 C0 10.05 0 5.1 0 0 Z " fill="#ACB8CB" transform="translate(36,69)"/>
<path d="M0 0 C1.89213369 2.38573379 3.02391783 4.07175348 4 7 C2.68 7.33 1.36 7.66 0 8 C-1.125 2.25 -1.125 2.25 0 0 Z " fill="#2670DC" transform="translate(99,136)"/>
<path d="M0 0 C0.66 0 1.32 0 2 0 C2 1.32 2 2.64 2 4 C2.66 4.33 3.32 4.66 4 5 C3.67 5.99 3.34 6.98 3 8 C2.01 8 1.02 8 0 8 C0 5.36 0 2.72 0 0 Z " fill="#2D79E0" transform="translate(37,88)"/>
<path d="M0 0 C0.33 1.32 0.66 2.64 1 4 C-0.98 4.99 -0.98 4.99 -3 6 C-3 5.34 -3 4.68 -3 4 C-3.66 3.67 -4.32 3.34 -5 3 C-2.25 0 -2.25 0 0 0 Z " fill="#D8D6DA" transform="translate(112,144)"/>
<path d="M0 0 C1.60031344 3.20062687 0.03173691 5.72271806 -1 9 C-1.66 8.34 -2.32 7.68 -3 7 C-2.61121812 3.98694043 -1.73543126 2.60314689 0 0 Z " fill="#C0C9D1" transform="translate(95,112)"/>
<path d="M0 0 C3 3.75 3 3.75 3 6 C1.35 6.33 -0.3 6.66 -2 7 C-1.34 4.69 -0.68 2.38 0 0 Z " fill="#B2A396" transform="translate(152,110)"/>
<path d="M0 0 C0.66 0 1.32 0 2 0 C1.45276317 3.37462715 0.9451 5.08235 -1 8 C-1.625 5.6875 -1.625 5.6875 -2 3 C-1.34 2.01 -0.68 1.02 0 0 Z " fill="#D1A82E" transform="translate(169,88)"/>
<path d="M0 0 C0.66 0 1.32 0 2 0 C4 3 4 3 4 6 C4.66 6 5.32 6 6 6 C6 6.66 6 7.32 6 8 C2.24623848 6.74874616 1.75926711 5.4347596 0 2 C0 1.34 0 0.68 0 0 Z " fill="#BFC7C5" transform="translate(103,142)"/>
<path d="M0 0 C0.66 0.66 1.32 1.32 2 2 C1.34 3.98 0.68 5.96 0 8 C-0.33 8 -0.66 8 -1 8 C-1.04241723 5.66705225 -1.04092937 3.33297433 -1 1 C-0.67 0.67 -0.34 0.34 0 0 Z " fill="#EFEFEF" transform="translate(68,146)"/>
<path d="M0 0 C0.66 0 1.32 0 2 0 C1.34 3.96 0.68 7.92 0 12 C-0.33 12 -0.66 12 -1 12 C-1.02698189 10.37509046 -1.04638757 8.75005367 -1.0625 7.125 C-1.07410156 6.22007812 -1.08570312 5.31515625 -1.09765625 4.3828125 C-1 2 -1 2 0 0 Z " fill="#E6E5E5" transform="translate(67,143)"/>
<path d="M0 0 C3 3.625 3 3.625 3 7 C2.01 7 1.02 7 0 7 C-0.93423645 3.98968256 -1.04449911 3.13349732 0 0 Z " fill="#AD9E90" transform="translate(169,118)"/>
<path d="M0 0 C0.66 0.99 1.32 1.98 2 3 C1.34 4.32 0.68 5.64 0 7 C-0.99 7 -1.98 7 -3 7 C-1.125 2.25 -1.125 2.25 0 0 Z " fill="#1969D7" transform="translate(71,116)"/>
<path d="M0 0 C0.98120464 3.05263664 0.98120464 4.94736336 0 8 C-0.66 8 -1.32 8 -2 8 C-2.125 5.125 -2.125 5.125 -2 2 C-1.34 1.34 -0.68 0.68 0 0 Z " fill="#A6A29B" transform="translate(141,106)"/>
<path d="M0 0 C0.66 0 1.32 0 2 0 C1.67 2.64 1.34 5.28 1 8 C0.01 8 -0.98 8 -2 8 C-1.34 5.36 -0.68 2.72 0 0 Z " fill="#DAD9DF" transform="translate(125,104)"/>
</svg>
